<?xml version="1.0" encoding="UTF-8"?>
<!DOCTYPE svg PUBLIC "-//W3C//DTD SVG 1.1//EN" "http://www.w3.org/Graphics/SVG/1.1/DTD/svg11.dtd">
<svg xmlns="http://www.w3.org/2000/svg" version="1.1" width="512px" height="512px" style="shape-rendering:geometricPrecision; text-rendering:geometricPrecision; image-rendering:optimizeQuality; fill-rule:evenodd; clip-rule:evenodd" xmlns:xlink="http://www.w3.org/1999/xlink">
<g><path style="opacity:0.999" fill="#494641" d="M 320.5,62.5 C 320.062,62.4346 319.728,62.6012 319.5,63C 323.217,67.7247 327.384,72.2247 332,76.5C 344.433,92.6311 350.6,110.964 350.5,131.5C 361.536,133.365 368.703,139.698 372,150.5C 376.003,181.496 362.503,194.663 331.5,190C 330.646,188.978 329.646,188.145 328.5,187.5C 327.424,189.987 326.09,192.32 324.5,194.5C 343.898,203.188 348.732,217.188 339,236.5C 337.5,238.167 336,239.833 334.5,241.5C 346.689,253.878 354.689,268.544 358.5,285.5C 389.835,285.333 421.168,285.5 452.5,286C 454.687,287.025 456.354,288.525 457.5,290.5C 457.953,295.706 456.953,300.706 454.5,305.5C 450.899,314.544 447.899,323.878 445.5,333.5C 445.579,334.93 445.246,336.264 444.5,337.5C 448.459,338.327 452.459,338.827 456.5,339C 458.871,341.184 458.704,343.35 456,345.5C 451.263,344.531 446.43,344.197 441.5,344.5C 436.155,362.2 430.821,379.866 425.5,397.5C 417.81,400.267 409.81,401.267 401.5,400.5C 350.166,400.667 298.832,400.5 247.5,400C 245.612,398.606 243.612,397.44 241.5,396.5C 222.45,391.229 208.95,379.563 201,361.5C 199.142,355.786 197.642,350.119 196.5,344.5C 188.657,343.18 180.657,343.18 172.5,344.5C 172.624,345.107 172.957,345.44 173.5,345.5C 173.682,347.591 173.348,349.591 172.5,351.5C 180.445,357.665 180.445,363.832 172.5,370C 173.715,373.316 173.381,376.482 171.5,379.5C 170.118,380.801 168.452,381.634 166.5,382C 142.169,382.5 117.836,382.667 93.5,382.5C 76.8146,382.724 60.1479,382.391 43.5,381.5C 44.6085,380.71 45.9419,380.21 47.5,380C 44.2962,374.115 45.1295,368.949 50,364.5C 50.6667,361.833 50.6667,359.167 50,356.5C 48.1667,354.667 46.3333,352.833 44.5,351C 45.4231,348.959 45.7564,346.792 45.5,344.5C 40.4889,344.666 35.4889,344.499 30.5,344C 29.2532,342.542 29.2532,341.042 30.5,339.5C 36.1375,338.337 41.8041,338.17 47.5,339C 48,339.5 48.5,340 49,340.5C 50.0812,336.908 51.0812,333.241 52,329.5C 54.2276,326.922 57.0609,325.589 60.5,325.5C 98.1252,326.321 135.792,326.821 173.5,327C 177.692,329.22 179.359,332.72 178.5,337.5C 177.957,337.56 177.624,337.893 177.5,338.5C 183.988,339.817 190.322,339.817 196.5,338.5C 196.333,322.83 196.5,307.163 197,291.5C 200.486,272.193 208.986,255.526 222.5,241.5C 212.986,230.695 211.153,218.695 217,205.5C 221.034,200.233 226.201,196.567 232.5,194.5C 230.91,192.32 229.576,189.987 228.5,187.5C 198.555,197.068 183.722,186.068 184,154.5C 185.894,145.859 190.394,139.026 197.5,134C 200.608,132.241 203.941,131.408 207.5,131.5C 206.822,111.035 212.656,92.7021 225,76.5C 228.367,72.7974 232.034,69.464 236,66.5C 236.36,64.3921 237.027,62.3921 238,60.5C 241.811,56.8324 245.978,53.8324 250.5,51.5C 272.818,43.6104 294.485,45.1104 315.5,56C 317.765,57.7581 319.432,59.9248 320.5,62.5 Z"/></g>
<g><path style="opacity:0.999" fill="#e7f2f8" d="M 250.5,51.5 C 245.978,53.8324 241.811,56.8324 238,60.5C 237.027,62.3921 236.36,64.3921 236,66.5C 232.034,69.464 228.367,72.7974 225,76.5C 212.656,92.7021 206.822,111.035 207.5,131.5C 203.941,131.408 200.608,132.241 197.5,134C 190.394,139.026 185.894,145.859 184,154.5C 183.722,186.068 198.555,197.068 228.5,187.5C 229.576,189.987 230.91,192.32 232.5,194.5C 226.201,196.567 221.034,200.233 217,205.5C 211.153,218.695 212.986,230.695 222.5,241.5C 208.986,255.526 200.486,272.193 197,291.5C 196.5,307.163 196.333,322.83 196.5,338.5C 190.31,338.823 184.31,338.49 178.5,337.5C 179.359,332.72 177.692,329.22 173.5,327C 135.792,326.821 98.1252,326.321 60.5,325.5C 61.5229,322.993 60.8562,320.827 58.5,319C 58.9574,318.586 59.2907,318.086 59.5,317.5C 56.2762,307.62 53.9429,297.954 52.5,288.5C 66.4104,293.306 80.0771,298.806 93.5,305C 99.9334,316.367 108.933,319.034 120.5,313C 126.823,308.04 129.156,301.707 127.5,294C 129.452,291.268 131.285,288.435 133,285.5C 133.66,282.953 133.493,280.453 132.5,278C 132.93,276.566 133.764,275.399 135,274.5C 135.499,269.177 135.666,263.844 135.5,258.5C 141.509,258.666 147.509,258.499 153.5,258C 160.041,254.505 161.041,249.838 156.5,244C 172.817,240.336 189.15,236.67 205.5,233C 207.592,231.147 208.592,228.814 208.5,226C 206.412,216.893 204.579,207.727 203,198.5C 201.471,194.969 198.804,192.969 195,192.5C 179.681,195.831 164.347,199.164 149,202.5C 148.5,202.167 148,201.833 147.5,201.5C 149.474,195.118 147.141,191.451 140.5,190.5C 133.637,193.066 126.803,195.733 120,198.5C 112.843,197.488 105.677,196.988 98.5,197C 92.1767,201.479 91.8433,206.479 97.5,212C 94.93,214.067 92.93,216.567 91.5,219.5C 78.7617,226.534 76.4284,236.034 84.5,248C 86.6705,249.586 89.0038,250.92 91.5,252C 96.3236,252.114 100.99,252.947 105.5,254.5C 103.809,259.302 105.142,263.135 109.5,266C 116.549,265.324 123.216,263.158 129.5,259.5C 130.661,263.795 130.828,268.129 130,272.5C 129.333,273.167 128.667,273.833 128,274.5C 126.274,273.424 124.441,273.257 122.5,274C 119.872,275.626 117.539,277.626 115.5,280C 111.167,280.667 106.833,280.667 102.5,280C 84.7772,273.157 67.4439,265.657 50.5,257.5C 51.8722,185.906 81.2056,129.406 138.5,88C 172.324,65.3368 209.658,53.1702 250.5,51.5 Z"/></g>
<g><path style="opacity:1" fill="#848588" d="M 315.5,67.5 C 297.848,57.8598 279.182,55.3598 259.5,60C 253.443,61.349 247.943,63.849 243,67.5C 242.517,66.552 242.351,65.552 242.5,64.5C 242.511,62.9826 243.177,61.8159 244.5,61C 268.603,47.6277 292.103,48.4611 315,63.5C 315.49,64.7932 315.657,66.1266 315.5,67.5 Z"/></g>
<g><path style="opacity:1" fill="#646668" d="M 315.5,67.5 C 314.414,70.9167 312.081,72.9167 308.5,73.5C 302.396,70.4489 296.062,67.9489 289.5,66C 281.833,65.3333 274.167,65.3333 266.5,66C 260.192,67.82 254.192,70.32 248.5,73.5C 243.136,72.3929 241.136,69.3929 242.5,64.5C 242.351,65.552 242.517,66.552 243,67.5C 247.943,63.849 253.443,61.349 259.5,60C 279.182,55.3598 297.848,57.8598 315.5,67.5 Z"/></g>
<g><path style="opacity:0.999" fill="#e7f3f9" d="M 320.5,62.5 C 394.161,89.3298 439.661,140.996 457,217.5C 461.377,241.962 461.544,266.295 457.5,290.5C 456.354,288.525 454.687,287.025 452.5,286C 421.168,285.5 389.835,285.333 358.5,285.5C 354.689,268.544 346.689,253.878 334.5,241.5C 336,239.833 337.5,238.167 339,236.5C 348.732,217.188 343.898,203.188 324.5,194.5C 326.09,192.32 327.424,189.987 328.5,187.5C 329.646,188.145 330.646,188.978 331.5,190C 362.503,194.663 376.003,181.496 372,150.5C 368.703,139.698 361.536,133.365 350.5,131.5C 350.6,110.964 344.433,92.6311 332,76.5C 327.384,72.2247 323.217,67.7247 319.5,63C 319.728,62.6012 320.062,62.4346 320.5,62.5 Z"/></g>
<g><path style="opacity:1" fill="#e0ecf1" d="M 268.5,70.5 C 281.753,68.6085 294.087,71.1085 305.5,78C 313.572,78.7144 319.572,82.7144 323.5,90C 316.355,88.2356 309.021,86.9023 301.5,86C 292.718,79.2789 282.718,76.4455 271.5,77.5C 255.922,77.0771 242.755,82.4105 232,93.5C 234.192,88.2688 237.692,83.7688 242.5,80C 251.549,77.6312 260.216,74.4645 268.5,70.5 Z"/></g>
<g><path style="opacity:1" fill="#a6bccf" d="M 235.5,72.5 C 237.681,72.2837 239.347,73.117 240.5,75C 223.955,90.117 216.288,108.95 217.5,131.5C 215.833,131.5 214.167,131.5 212.5,131.5C 211.735,108.448 219.402,88.7812 235.5,72.5 Z"/></g>
<g><path style="opacity:1" fill="#a6bbce" d="M 318.5,71.5 C 323.436,74.6012 327.603,78.6012 331,83.5C 340.782,97.9552 345.282,113.955 344.5,131.5C 342.833,131.5 341.167,131.5 339.5,131.5C 340.664,109.811 333.497,91.478 318,76.5C 317.616,74.8034 317.782,73.1368 318.5,71.5 Z"/></g>
<g><path style="opacity:1" fill="#fbeb9b" d="M 334.5,129.5 C 312.765,96.4233 283.765,87.9233 247.5,104C 237.597,111.069 229.263,119.569 222.5,129.5C 225.457,99.876 241.791,84.2093 271.5,82.5C 279.542,82.2941 287.209,83.7941 294.5,87C 295.833,88.3333 297.167,89.6667 298.5,91C 308.197,90.8886 317.197,93.222 325.5,98C 328.293,101.081 330.46,104.581 332,108.5C 333.536,115.421 334.37,122.421 334.5,129.5 Z"/></g>
<g><path style="opacity:1" fill="#fddd3d" d="M 334.5,129.5 C 332.576,131.583 330.409,133.583 328,135.5C 327.667,139.5 327.333,143.5 327,147.5C 326.052,145.43 324.552,143.93 322.5,143C 319.833,142.667 317.167,142.333 314.5,142C 307.835,135.353 302.002,128.186 297,120.5C 286.602,127.611 275.102,131.778 262.5,133C 252.833,133.333 243.167,133.667 233.5,134C 232.568,137.085 231.901,140.252 231.5,143.5C 230.833,141.5 230.167,139.5 229.5,137.5C 227.705,134.191 225.372,131.524 222.5,129.5C 229.263,119.569 237.597,111.069 247.5,104C 283.765,87.9233 312.765,96.4233 334.5,129.5 Z"/></g>
<g><path style="opacity:1" fill="#f1c3b5" d="M 293.5,127.5 C 294.822,127.33 295.989,127.663 297,128.5C 300.118,133.286 303.618,137.786 307.5,142C 299.833,142.333 292.167,142.667 284.5,143C 281.113,145.234 279.113,148.4 278.5,152.5C 277.887,148.4 275.887,145.234 272.5,143C 260.838,142.5 249.171,142.333 237.5,142.5C 237.5,141.167 237.5,139.833 237.5,138.5C 254.37,140.01 270.703,137.843 286.5,132C 289.239,130.974 291.572,129.474 293.5,127.5 Z"/></g>
<g><path style="opacity:1" fill="#646668" d="M 209.5,136.5 C 214.43,136.197 219.263,136.531 224,137.5C 224.667,153.167 224.667,168.833 224,184.5C 219.263,185.469 214.43,185.803 209.5,185.5C 209.5,169.167 209.5,152.833 209.5,136.5 Z"/></g>
<g><path style="opacity:1" fill="#646668" d="M 333.5,136.5 C 338.167,136.5 342.833,136.5 347.5,136.5C 347.5,152.833 347.5,169.167 347.5,185.5C 342.57,185.803 337.737,185.469 333,184.5C 332.183,168.426 332.35,152.426 333.5,136.5 Z"/></g>
<g><path style="opacity:1" fill="#ad9a3c" d="M 229.5,137.5 C 230.167,139.5 230.833,141.5 231.5,143.5C 231.217,144.289 230.717,144.956 230,145.5C 229.503,142.854 229.336,140.187 229.5,137.5 Z"/></g>
<g><path style="opacity:1" fill="#8ea6b9" d="M 201.5,137.5 C 202.5,137.5 203.5,137.5 204.5,137.5C 204.5,153.167 204.5,168.833 204.5,184.5C 200.768,184.05 197.602,182.383 195,179.5C 189.369,170.133 188.036,160.133 191,149.5C 192.963,144.044 196.463,140.044 201.5,137.5 Z"/></g>
<g><path style="opacity:1" fill="#8ea5b8" d="M 352.5,137.5 C 360.049,139.213 364.882,143.88 367,151.5C 368.584,160.989 367.25,169.989 363,178.5C 360.297,181.934 356.797,183.934 352.5,184.5C 352.5,168.833 352.5,153.167 352.5,137.5 Z"/></g>
<g><path style="opacity:1" fill="#f9c9ba" d="M 235.5,147.5 C 247.171,147.333 258.838,147.5 270.5,148C 271.574,148.739 272.241,149.739 272.5,151C 271.77,154.794 271.27,158.627 271,162.5C 269.833,166.333 267.333,168.833 263.5,170C 256.5,170.667 249.5,170.667 242.5,170C 239.417,169.214 237.251,167.381 236,164.5C 235.501,158.843 235.334,153.176 235.5,147.5 Z"/></g>
<g><path style="opacity:1" fill="#f7c7b9" d="M 286.5,147.5 C 295.839,147.334 305.173,147.5 314.5,148C 322.848,152.004 324.681,158.171 320,166.5C 318.421,168.041 316.587,169.208 314.5,170C 307.5,170.667 300.5,170.667 293.5,170C 289.667,168.833 287.167,166.333 286,162.5C 285.682,158.805 285.182,155.138 284.5,151.5C 284.752,149.927 285.418,148.594 286.5,147.5 Z"/></g>
<g><path style="opacity:1" fill="#514a44" d="M 253.5,152.5 C 259.801,151.314 264.634,153.314 268,158.5C 268.833,161.667 267.667,162.833 264.5,162C 260.167,156 255.833,156 251.5,162C 248.333,162.833 247.167,161.667 248,158.5C 249.36,155.977 251.193,153.977 253.5,152.5 Z"/></g>
<g><path style="opacity:1" fill="#514a44" d="M 294.5,152.5 C 300.801,151.314 305.634,153.314 309,158.5C 309.833,161.667 308.667,162.833 305.5,162C 301.167,156 296.833,156 292.5,162C 288.29,162.089 287.457,160.256 290,156.5C 291.667,155.267 293.167,153.933 294.5,152.5 Z"/></g>
<g><path style="opacity:1" fill="#fbcbbc" d="M 301.5,175.5 C 302.857,182.68 306.69,184.346 313,180.5C 314.009,178.975 314.509,177.308 314.5,175.5C 320.722,173.781 324.889,169.781 327,163.5C 327.22,190.879 314.053,208.046 287.5,215C 253.864,217.348 234.531,201.848 229.5,168.5C 229.667,166.5 229.833,164.5 230,162.5C 231.626,169.292 235.792,173.625 242.5,175.5C 242.489,180.155 244.822,182.489 249.5,182.5C 253.578,182.038 255.578,179.705 255.5,175.5C 268.744,176.58 275.744,170.58 276.5,157.5C 277.833,157.5 279.167,157.5 280.5,157.5C 281.314,170.644 288.314,176.644 301.5,175.5 Z"/></g>
<g><path style="opacity:1" fill="#ffb59e" d="M 242.5,175.5 C 246.833,175.5 251.167,175.5 255.5,175.5C 255.578,179.705 253.578,182.038 249.5,182.5C 244.822,182.489 242.489,180.155 242.5,175.5 Z"/></g>
<g><path style="opacity:1" fill="#ffb59f" d="M 301.5,175.5 C 305.833,175.5 310.167,175.5 314.5,175.5C 314.509,177.308 314.009,178.975 313,180.5C 306.69,184.346 302.857,182.68 301.5,175.5 Z"/></g>
<g><path style="opacity:1" fill="#4d4741" d="M 261.5,187.5 C 266.67,190.11 272.17,192.11 278,193.5C 283.098,193.026 287.598,191.192 291.5,188C 293.134,187.506 294.801,187.34 296.5,187.5C 296.256,190.263 294.923,192.429 292.5,194C 280.492,201.167 269.825,199.667 260.5,189.5C 260.863,188.817 261.196,188.15 261.5,187.5 Z"/></g>
<g><path style="opacity:0.998" fill="#4a4742" d="M 52.5,288.5 C 49.1284,286.754 45.6284,285.088 42,283.5C 41.6667,283.833 41.3333,284.167 41,284.5C 37.0652,282.184 33.2318,279.684 29.5,277C 30.1189,275.243 31.2856,274.076 33,273.5C 39.2293,275.742 45.3959,278.075 51.5,280.5C 52.0577,281.79 53.0577,282.623 54.5,283C 66.8333,288.167 79.1667,293.333 91.5,298.5C 92.2412,293.018 94.5746,288.351 98.5,284.5C 82.7412,277.247 66.7412,270.581 50.5,264.5C 45.1926,262.181 39.8593,259.848 34.5,257.5C 33.5481,255.955 33.2148,254.288 33.5,252.5C 39.4486,253.149 45.1153,254.816 50.5,257.5C 67.4439,265.657 84.7772,273.157 102.5,280C 106.833,280.667 111.167,280.667 115.5,280C 117.539,277.626 119.872,275.626 122.5,274C 124.441,273.257 126.274,273.424 128,274.5C 128.667,273.833 129.333,273.167 130,272.5C 130.828,268.129 130.661,263.795 129.5,259.5C 123.216,263.158 116.549,265.324 109.5,266C 105.142,263.135 103.809,259.302 105.5,254.5C 100.99,252.947 96.3236,252.114 91.5,252C 89.0038,250.92 86.6705,249.586 84.5,248C 76.4284,236.034 78.7617,226.534 91.5,219.5C 92.93,216.567 94.93,214.067 97.5,212C 91.8433,206.479 92.1767,201.479 98.5,197C 105.677,196.988 112.843,197.488 120,198.5C 126.803,195.733 133.637,193.066 140.5,190.5C 147.141,191.451 149.474,195.118 147.5,201.5C 148,201.833 148.5,202.167 149,202.5C 164.347,199.164 179.681,195.831 195,192.5C 198.804,192.969 201.471,194.969 203,198.5C 204.579,207.727 206.412,216.893 208.5,226C 208.592,228.814 207.592,231.147 205.5,233C 189.15,236.67 172.817,240.336 156.5,244C 161.041,249.838 160.041,254.505 153.5,258C 147.509,258.499 141.509,258.666 135.5,258.5C 135.666,263.844 135.499,269.177 135,274.5C 133.764,275.399 132.93,276.566 132.5,278C 133.493,280.453 133.66,282.953 133,285.5C 131.285,288.435 129.452,291.268 127.5,294C 129.156,301.707 126.823,308.04 120.5,313C 108.933,319.034 99.9334,316.367 93.5,305C 80.0771,298.806 66.4104,293.306 52.5,288.5 Z"/></g>
<g><path style="opacity:1" fill="#dbe6eb" d="M 139.5,195.5 C 140.822,195.33 141.989,195.663 143,196.5C 143.615,199.045 143.115,201.378 141.5,203.5C 136.283,205.138 130.95,206.138 125.5,206.5C 125.215,204.712 125.548,203.045 126.5,201.5C 131.044,199.725 135.377,197.725 139.5,195.5 Z"/></g>
<g><path style="opacity:1" fill="#636567" d="M 190.5,198.5 C 192.833,198.5 195.167,198.5 197.5,198.5C 199.498,207.814 201.498,217.147 203.5,226.5C 201.974,229.092 199.641,230.092 196.5,229.5C 194.243,219.216 192.243,208.882 190.5,198.5 Z"/></g>
<g><path style="opacity:1" fill="#f8f8f8" d="M 187.5,212.5 C 187.78,215.388 186.447,216.888 183.5,217C 170.2,219.827 156.867,222.327 143.5,224.5C 143.5,223.5 143.5,222.5 143.5,221.5C 144.116,217.137 144.95,212.803 146,208.5C 150.968,206.071 156.135,205.404 161.5,206.5C 162.23,209.109 162.73,211.776 163,214.5C 164.11,216.037 165.61,216.703 167.5,216.5C 167.414,212.143 167.08,207.81 166.5,203.5C 168.895,202.637 171.229,202.637 173.5,203.5C 174.244,206.443 174.744,209.443 175,212.5C 177.786,214.184 179.62,213.517 180.5,210.5C 179.833,208.167 179.167,205.833 178.5,203.5C 180.114,200.573 182.447,199.906 185.5,201.5C 186.681,205.072 187.348,208.738 187.5,212.5 Z"/></g>
<g><path style="opacity:1" fill="#f9f9f9" d="M 233.5,199.5 C 237.864,202.35 241.864,205.85 245.5,210C 249.619,212.726 253.952,214.893 258.5,216.5C 258.5,222.167 258.5,227.833 258.5,233.5C 246.632,230.162 235.799,224.828 226,217.5C 223.51,214.535 222.176,211.202 222,207.5C 225.482,204.161 229.315,201.494 233.5,199.5 Z"/></g>
<g><path style="opacity:1" fill="#f9f9f8" d="M 321.5,199.5 C 326.855,200.681 331.355,203.348 335,207.5C 334.721,212.498 332.554,216.665 328.5,220C 319.021,225.489 309.187,230.323 299,234.5C 298.501,228.509 298.334,222.509 298.5,216.5C 308.086,213.53 315.752,207.863 321.5,199.5 Z"/></g>
<g><path style="opacity:1" fill="#dbe6eb" d="M 99.5,201.5 C 106.15,202.11 112.816,202.61 119.5,203C 120.406,204.699 120.739,206.533 120.5,208.5C 115.28,209.177 110.113,210.177 105,211.5C 102.566,209.993 100.566,207.993 99,205.5C 98.805,204.181 98.9717,202.847 99.5,201.5 Z"/></g>
<g><path style="opacity:1" fill="#f5f5f5" d="M 135.5,209.5 C 137.167,209.5 138.833,209.5 140.5,209.5C 140.053,213.787 139.053,217.953 137.5,222C 136.391,223.861 134.725,224.695 132.5,224.5C 131.006,224.291 129.839,223.624 129,222.5C 128.064,218.886 127.564,215.22 127.5,211.5C 130.373,211.198 133.039,210.531 135.5,209.5 Z"/></g>
<g><path style="opacity:1" fill="#f5f5f4" d="M 115.5,213.5 C 117.833,213.5 120.167,213.5 122.5,213.5C 123.167,217.833 123.833,222.167 124.5,226.5C 121.446,227.321 118.446,227.321 115.5,226.5C 113.025,222.858 110.358,219.358 107.5,216C 110.31,215.218 112.977,214.384 115.5,213.5 Z"/></g>
<g><path style="opacity:1" fill="#e2edf3" d="M 187.5,212.5 C 189.323,218.61 190.657,224.943 191.5,231.5C 189.194,231.993 186.861,232.326 184.5,232.5C 184.218,229.09 183.551,225.757 182.5,222.5C 180.994,221.253 179.494,221.253 178,222.5C 177.999,225.518 178.499,228.518 179.5,231.5C 179.288,233.888 177.955,234.888 175.5,234.5C 174.5,234.167 173.5,233.833 172.5,233.5C 171.787,231.224 171.287,228.891 171,226.5C 169.31,222.809 167.476,222.643 165.5,226C 166.329,229.478 166.996,232.978 167.5,236.5C 162.188,237.946 156.855,238.279 151.5,237.5C 147.987,233.134 144.987,228.468 142.5,223.5C 142.543,222.584 142.876,221.917 143.5,221.5C 143.5,222.5 143.5,223.5 143.5,224.5C 156.867,222.327 170.2,219.827 183.5,217C 186.447,216.888 187.78,215.388 187.5,212.5 Z"/></g>
<g><path style="opacity:1" fill="#07b2e7" d="M 218.5,216.5 C 222.408,221.902 227.408,226.069 233.5,229C 241.936,233.218 250.602,236.885 259.5,240C 263.833,247.667 268.167,255.333 272.5,263C 268.119,261.557 263.952,259.39 260,256.5C 259.089,252.099 257.589,247.932 255.5,244C 253.393,243.146 252.059,243.812 251.5,246C 252.863,248.508 253.196,251.008 252.5,253.5C 244.338,249.253 236.338,244.753 228.5,240C 221.208,233.909 217.875,226.076 218.5,216.5 Z"/></g>
<g><path style="opacity:1" fill="#07b2e7" d="M 337.5,216.5 C 339.379,226.011 336.379,233.845 328.5,240C 320.662,244.753 312.662,249.253 304.5,253.5C 303.804,251.008 304.137,248.508 305.5,246C 304.941,243.812 303.607,243.146 301.5,244C 299.411,247.932 297.911,252.099 297,256.5C 293.048,259.39 288.881,261.557 284.5,263C 288.833,255.333 293.167,247.667 297.5,240C 309.378,235.727 320.711,230.393 331.5,224C 334.094,221.914 336.094,219.414 337.5,216.5 Z"/></g>
<g><path style="opacity:1" fill="#fab29c" d="M 293.5,227.5 C 283.5,228.833 273.5,228.833 263.5,227.5C 263.5,224.833 263.5,222.167 263.5,219.5C 273.493,220.805 283.493,220.805 293.5,219.5C 293.5,222.167 293.5,224.833 293.5,227.5 Z"/></g>
<g><path style="opacity:1" fill="#89a0b3" d="M 91.5,225.5 C 94.861,232.224 96.861,239.558 97.5,247.5C 87.7398,246.558 83.9065,241.225 86,231.5C 87.3597,228.977 89.193,226.977 91.5,225.5 Z"/></g>
<g><path style="opacity:1" fill="#fcccbd" d="M 263.5,227.5 C 273.5,228.833 283.5,228.833 293.5,227.5C 293.737,231.273 293.237,234.94 292,238.5C 288.009,247.152 283.509,255.486 278.5,263.5C 273.158,254.818 268.325,245.818 264,236.5C 263.502,233.518 263.335,230.518 263.5,227.5 Z"/></g>
<g><path style="opacity:1" fill="#dfeaf0" d="M 134.5,228.5 C 136.288,228.215 137.955,228.548 139.5,229.5C 141.833,232.833 144.167,236.167 146.5,239.5C 142.101,241.744 137.434,242.744 132.5,242.5C 132.091,238.124 131.425,233.79 130.5,229.5C 132.099,229.768 133.432,229.434 134.5,228.5 Z"/></g>
<g><path style="opacity:1" fill="#e9f0f4" d="M 98.5,217.5 C 100.722,217.178 102.556,217.845 104,219.5C 106.848,223.677 109.682,227.844 112.5,232C 110.798,236.773 109.298,241.606 108,246.5C 104.951,249.401 102.951,248.734 102,244.5C 100.916,236.745 99.4163,229.079 97.5,221.5C 97.6233,220.075 97.9566,218.742 98.5,217.5 Z"/></g>
<g><path style="opacity:1" fill="#dee9ef" d="M 121.5,231.5 C 123.144,231.286 124.644,231.62 126,232.5C 127.499,236.473 127.666,240.473 126.5,244.5C 122.287,245.911 117.954,246.578 113.5,246.5C 114.424,242.059 115.758,237.725 117.5,233.5C 118.949,232.828 120.282,232.161 121.5,231.5 Z"/></g>
<g><path style="opacity:1" fill="#deeaef" d="M 144.5,245.5 C 149.393,244.314 152.727,245.981 154.5,250.5C 154.291,251.086 153.957,251.586 153.5,252C 147.175,252.5 140.842,252.666 134.5,252.5C 134.5,250.833 134.5,249.167 134.5,247.5C 138.078,247.451 141.411,246.785 144.5,245.5 Z"/></g>
<g><path style="opacity:1" fill="#49ccfb" d="M 248.5,256.5 C 225.87,266.3 210.704,282.966 203,306.5C 202.501,301.845 202.334,297.179 202.5,292.5C 204.963,274.408 212.629,258.908 225.5,246C 226.833,245.333 228.167,245.333 229.5,246C 235.566,250.032 241.899,253.532 248.5,256.5 Z"/></g>
<g><path style="opacity:1" fill="#49ccfb" d="M 352.5,282.5 C 351.306,283.777 349.64,284.444 347.5,284.5C 345.833,284.167 344.167,283.833 342.5,283.5C 333.541,271.861 322.541,262.861 309.5,256.5C 316.556,252.136 323.89,248.636 331.5,246C 341.995,256.158 348.995,268.325 352.5,282.5 Z"/></g>
<g><path style="opacity:1" fill="#dde8ed" d="M 124.5,249.5 C 128.512,248.887 130.512,250.554 130.5,254.5C 124.089,256.719 117.756,258.886 111.5,261C 109.201,258.465 109.201,255.798 111.5,253C 116.115,252.334 120.449,251.168 124.5,249.5 Z"/></g>
<g><path style="opacity:1" fill="#03b6ed" d="M 248.5,256.5 C 250.643,258.074 252.976,259.408 255.5,260.5C 256.251,261.376 256.751,262.376 257,263.5C 259.648,275.35 260.981,287.35 261,299.5C 262.333,300.833 263.667,300.833 265,299.5C 265.326,288.253 264.492,277.087 262.5,266C 262.833,265.5 263.167,265 263.5,264.5C 268.378,267.438 273.378,270.105 278.5,272.5C 283.622,270.105 288.622,267.438 293.5,264.5C 293.833,265.5 294.167,266.5 294.5,267.5C 291.86,278.015 291.027,288.681 292,299.5C 293.333,300.833 294.667,300.833 296,299.5C 295.667,286.167 297.501,273.167 301.5,260.5C 304.22,259.14 306.886,257.807 309.5,256.5C 322.541,262.861 333.541,271.861 342.5,283.5C 344.167,283.833 345.833,284.167 347.5,284.5C 349.64,284.444 351.306,283.777 352.5,282.5C 353.404,283.209 353.737,284.209 353.5,285.5C 344.161,285.334 334.827,285.5 325.5,286C 324.5,286.833 323.5,287.667 322.5,288.5C 315.841,305.144 310.174,322.144 305.5,339.5C 281.167,339.5 256.833,339.5 232.5,339.5C 232.667,323.83 232.5,308.163 232,292.5C 230.667,291.167 229.333,291.167 228,292.5C 227.053,310.886 227.387,329.219 229,347.5C 234.359,361.692 244.692,369.025 260,369.5C 260.499,373.152 260.665,376.818 260.5,380.5C 253.159,380.334 245.826,380.5 238.5,381C 237.8,384.195 237.467,387.361 237.5,390.5C 216.385,381.88 204.552,366.214 202,343.5C 201.172,326.328 201.338,309.328 202.5,292.5C 202.334,297.179 202.501,301.845 203,306.5C 210.704,282.966 225.87,266.3 248.5,256.5 Z"/></g>
<g><path style="opacity:0.999" fill="#e4f0f5" d="M 50.5,264.5 C 66.7412,270.581 82.7412,277.247 98.5,284.5C 94.5746,288.351 92.2412,293.018 91.5,298.5C 79.1667,293.333 66.8333,288.167 54.5,283C 53.0577,282.623 52.0577,281.79 51.5,280.5C 51.533,277.164 50.8664,273.997 49.5,271C 49.9679,269.178 50.3012,267.011 50.5,264.5 Z"/></g>
<g><path style="opacity:1" fill="#636466" d="M 105.5,285.5 C 118.819,284.319 124.319,290.319 122,303.5C 117.983,310.138 112.15,312.304 104.5,310C 97.5652,305.45 95.7318,299.283 99,291.5C 101.063,289.266 103.229,287.266 105.5,285.5 Z"/></g>
<g><path style="opacity:1" fill="#47433f" d="M 106.5,289.5 C 116.212,288.709 120.045,293.043 118,302.5C 115.045,306.277 111.212,307.443 106.5,306C 101.931,303.459 100.431,299.625 102,294.5C 103.707,292.963 105.207,291.296 106.5,289.5 Z"/></g>
<g><path style="opacity:1" fill="#e0ecf1" d="M 327.5,290.5 C 329.167,290.5 330.833,290.5 332.5,290.5C 323.237,319.789 314.071,349.122 305,378.5C 302.534,379.777 300.034,379.777 297.5,378.5C 306.928,348.882 316.928,319.549 327.5,290.5 Z"/></g>
<g><path style="opacity:1" fill="#bfdae9" d="M 414.5,290.5 C 405.112,300.22 395.778,309.886 386.5,319.5C 381.824,319.183 377.158,319.683 372.5,321C 370.951,322.214 369.785,323.714 369,325.5C 368.502,328.817 368.335,332.15 368.5,335.5C 368.631,336.239 368.464,336.906 368,337.5C 353.965,351.368 340.131,365.368 326.5,379.5C 320.974,379.821 315.64,379.488 310.5,378.5C 319.426,349.389 328.759,320.389 338.5,291.5C 363.825,290.5 389.158,290.167 414.5,290.5 Z"/></g>
<g><path style="opacity:1" fill="#acc3d8" d="M 414.5,290.5 C 426.505,290.333 438.505,290.5 450.5,291C 451.574,291.739 452.241,292.739 452.5,294C 442.862,322.413 433.529,350.913 424.5,379.5C 391.833,379.5 359.167,379.5 326.5,379.5C 340.131,365.368 353.965,351.368 368,337.5C 368.464,336.906 368.631,336.239 368.5,335.5C 370.023,340.017 372.689,343.85 376.5,347C 379.17,347.543 381.67,347.043 384,345.5C 386.787,346.517 389.62,346.684 392.5,346C 395.125,343.256 397.125,340.089 398.5,336.5C 393.688,332.802 393.355,328.802 397.5,324.5C 395.156,320.058 391.489,318.391 386.5,319.5C 395.778,309.886 405.112,300.22 414.5,290.5 Z"/></g>
<g><path style="opacity:1" fill="#a7bdd1" d="M 108.5,294.5 C 112.976,294.8 114.31,296.967 112.5,301C 106.339,301.878 105.006,299.711 108.5,294.5 Z"/></g>
<g><path style="opacity:0.667" fill="#b6bdbf" d="M 454.5,305.5 C 452.675,315.304 449.675,324.637 445.5,333.5C 447.899,323.878 450.899,314.544 454.5,305.5 Z"/></g>
<g><path style="opacity:1" fill="#4d4b48" d="M 387.5,308.5 C 389.635,308.147 390.968,308.98 391.5,311C 390.333,313.5 388.5,315.333 386,316.5C 384.5,316.333 383.667,315.5 383.5,314C 384.65,312.019 385.984,310.186 387.5,308.5 Z"/></g>
<g><path style="opacity:1" fill="#4b4743" d="M 386.5,319.5 C 391.489,318.391 395.156,320.058 397.5,324.5C 393.355,328.802 393.688,332.802 398.5,336.5C 397.125,340.089 395.125,343.256 392.5,346C 389.62,346.684 386.787,346.517 384,345.5C 381.67,347.043 379.17,347.543 376.5,347C 372.689,343.85 370.023,340.017 368.5,335.5C 368.335,332.15 368.502,328.817 369,325.5C 369.785,323.714 370.951,322.214 372.5,321C 377.158,319.683 381.824,319.183 386.5,319.5 Z"/></g>
<g><path style="opacity:1" fill="#e8edee" d="M 375.5,324.5 C 380.5,325.659 385.5,325.826 390.5,325C 388.765,329.729 389.432,334.063 392.5,338C 391.833,339 391.167,340 390.5,341C 386.824,340.437 383.158,340.604 379.5,341.5C 377.971,341.471 376.804,340.804 376,339.5C 373.02,334.52 372.853,329.52 375.5,324.5 Z"/></g>
<g><path style="opacity:1" fill="#f4f3f3" d="M 57.5,331.5 C 95.5015,331.333 133.501,331.5 171.5,332C 174.167,334.333 174.167,336.667 171.5,339C 133.833,339.667 96.1667,339.667 58.5,339C 55.0338,336.806 54.7005,334.306 57.5,331.5 Z"/></g>
<g><path style="opacity:1" fill="#979b9c" d="M 178.5,337.5 C 184.31,338.49 190.31,338.823 196.5,338.5C 190.322,339.817 183.988,339.817 177.5,338.5C 177.624,337.893 177.957,337.56 178.5,337.5 Z"/></g>
<g><path style="opacity:0.853" fill="#4c4842" d="M 463.5,338.5 C 469.206,338.171 474.872,338.505 480.5,339.5C 481.747,341.042 481.747,342.542 480.5,344C 474.833,344.667 469.167,344.667 463.5,344C 462.248,342.172 462.248,340.339 463.5,338.5 Z"/></g>
<g><path style="opacity:1" fill="#8f8c89" d="M 196.5,344.5 C 188.648,344.175 180.982,344.508 173.5,345.5C 172.957,345.44 172.624,345.107 172.5,344.5C 180.657,343.18 188.657,343.18 196.5,344.5 Z"/></g>
<g><path style="opacity:1" fill="#fefefe" d="M 52.5,344.5 C 90.8348,344.333 129.168,344.5 167.5,345C 168.935,347.267 168.602,349.267 166.5,351C 128.5,351.667 90.5,351.667 52.5,351C 49.9387,348.844 49.9387,346.677 52.5,344.5 Z"/></g>
<g><path style="opacity:0.997" fill="#fefefe" d="M 196.5,344.5 C 197.642,350.119 199.142,355.786 201,361.5C 208.95,379.563 222.45,391.229 241.5,396.5C 239.723,397.6 237.723,398.434 235.5,399C 234.167,400 234.167,401 235.5,402C 244.393,403.937 253.393,405.27 262.5,406C 306.824,409.145 351.157,409.312 395.5,406.5C 363.003,437.242 324.337,455.409 279.5,461C 209.619,467.323 150.619,445.157 102.5,394.5C 122.148,392.689 142.148,391.522 162.5,391C 171.007,390.285 179.34,388.785 187.5,386.5C 187.5,385.5 187.5,384.5 187.5,383.5C 182.101,382.025 176.768,380.692 171.5,379.5C 173.381,376.482 173.715,373.316 172.5,370C 180.445,363.832 180.445,357.665 172.5,351.5C 173.348,349.591 173.682,347.591 173.5,345.5C 180.982,344.508 188.648,344.175 196.5,344.5 Z"/></g>
<g><path style="opacity:1" fill="#fcfcfc" d="M 233.5,344.5 C 256.836,344.333 280.169,344.5 303.5,345C 300.465,354.606 297.131,364.106 293.5,373.5C 291.358,370.927 288.692,369.094 285.5,368C 278.5,367.667 271.5,367.333 264.5,367C 263.449,365.615 262.116,364.615 260.5,364C 246.403,364.305 237.403,357.805 233.5,344.5 Z"/></g>
<g><path style="opacity:1" fill="#f4f3f3" d="M 58.5,356.5 C 96.1681,356.333 133.835,356.5 171.5,357C 174.167,359.333 174.167,361.667 171.5,364C 133.5,364.667 95.5,364.667 57.5,364C 56.4258,363.261 55.7591,362.261 55.5,361C 56.3146,359.357 57.3146,357.857 58.5,356.5 Z"/></g>
<g><path style="opacity:1" fill="#f4f4f4" d="M 52.5,369.5 C 90.5015,369.333 128.501,369.5 166.5,370C 169.167,372.333 169.167,374.667 166.5,377C 128.5,377.667 90.5,377.667 52.5,377C 49.9142,374.506 49.9142,372.006 52.5,369.5 Z"/></g>
<g><path style="opacity:1" fill="#fdccbe" d="M 266.5,372.5 C 272.509,372.334 278.509,372.501 284.5,373C 287.749,374.08 289.749,376.247 290.5,379.5C 282.5,379.5 274.5,379.5 266.5,379.5C 266.5,377.167 266.5,374.833 266.5,372.5 Z"/></g>
<g><path style="opacity:1" fill="#a1867c" d="M 266.5,372.5 C 266.5,374.833 266.5,377.167 266.5,379.5C 274.5,379.5 282.5,379.5 290.5,379.5C 282.35,380.493 274.017,380.826 265.5,380.5C 265.194,377.615 265.527,374.948 266.5,372.5 Z"/></g>
<g><path style="opacity:1" fill="#70777d" d="M 310.5,378.5 C 315.64,379.488 320.974,379.821 326.5,379.5C 359.167,379.5 391.833,379.5 424.5,379.5C 386.331,380.83 347.998,380.83 309.5,379.5C 309.624,378.893 309.957,378.56 310.5,378.5 Z"/></g>
<g><path style="opacity:1" fill="#d7d7d7" d="M 171.5,379.5 C 176.768,380.692 182.101,382.025 187.5,383.5C 187.5,384.5 187.5,385.5 187.5,386.5C 179.34,388.785 171.007,390.285 162.5,391C 142.148,391.522 122.148,392.689 102.5,394.5C 99.7196,393.922 97.0529,393.255 94.5,392.5C 96.8568,392.663 99.1902,392.497 101.5,392C 98.7065,388.895 96.0398,385.728 93.5,382.5C 117.836,382.667 142.169,382.5 166.5,382C 168.452,381.634 170.118,380.801 171.5,379.5 Z"/></g>
<g><path style="opacity:0.149" fill="#0a0909" d="M 43.5,381.5 C 60.1479,382.391 76.8146,382.724 93.5,382.5C 96.0398,385.728 98.7065,388.895 101.5,392C 99.1902,392.497 96.8568,392.663 94.5,392.5C 74.5862,393.035 54.9195,391.202 35.5,387C 32.8333,385.667 32.8333,384.333 35.5,383C 38.1168,382.178 40.7835,381.678 43.5,381.5 Z"/></g>
<g><path style="opacity:1" fill="#87898a" d="M 298.5,395.5 C 298.5,392.167 298.5,388.833 298.5,385.5C 279.803,384.846 261.47,385.513 243.5,387.5C 242.596,386.791 242.263,385.791 242.5,384.5C 261.5,384.5 280.5,384.5 299.5,384.5C 299.815,388.371 299.482,392.038 298.5,395.5 Z"/></g>
<g><path style="opacity:1" fill="#e5f0f6" d="M 298.5,395.5 C 281.83,395.667 265.163,395.5 248.5,395C 245.692,393.207 244.026,390.707 243.5,387.5C 261.47,385.513 279.803,384.846 298.5,385.5C 298.5,388.833 298.5,392.167 298.5,395.5 Z"/></g>
<g><path style="opacity:1" fill="#bdd9e8" d="M 304.5,385.5 C 344.172,385.167 383.839,385.5 423.5,386.5C 423.253,390.579 421.253,393.412 417.5,395C 379.835,395.5 342.168,395.667 304.5,395.5C 304.5,392.167 304.5,388.833 304.5,385.5 Z"/></g>
<g><path style="opacity:1" fill="#dadada" d="M 241.5,396.5 C 243.612,397.44 245.612,398.606 247.5,400C 298.832,400.5 350.166,400.667 401.5,400.5C 399.833,402.5 398.167,404.5 396.5,406.5C 396.167,406.5 395.833,406.5 395.5,406.5C 351.157,409.312 306.824,409.145 262.5,406C 253.393,405.27 244.393,403.937 235.5,402C 234.167,401 234.167,400 235.5,399C 237.723,398.434 239.723,397.6 241.5,396.5 Z"/></g>
<g><path style="opacity:0.149" fill="#0c0c0b" d="M 425.5,397.5 C 428.272,397.22 430.772,397.887 433,399.5C 433.271,401.807 432.105,402.974 429.5,403C 418.601,405.09 407.601,406.257 396.5,406.5C 398.167,404.5 399.833,402.5 401.5,400.5C 409.81,401.267 417.81,400.267 425.5,397.5 Z"/></g>
</svg>
