<?xml version="1.0" encoding="UTF-8"?>
<!DOCTYPE svg PUBLIC "-//W3C//DTD SVG 1.1//EN" "http://www.w3.org/Graphics/SVG/1.1/DTD/svg11.dtd">
<svg xmlns="http://www.w3.org/2000/svg" version="1.1" width="720px" height="720px" style="shape-rendering:geometricPrecision; text-rendering:geometricPrecision; image-rendering:optimizeQuality; fill-rule:evenodd; clip-rule:evenodd" xmlns:xlink="http://www.w3.org/1999/xlink">
<g><path style="opacity:1" fill="#b3a2d9" d="M -0.5,-0.5 C 239.5,-0.5 479.5,-0.5 719.5,-0.5C 719.5,239.5 719.5,479.5 719.5,719.5C 678.167,719.5 636.833,719.5 595.5,719.5C 594.061,711.573 593.061,703.573 592.5,695.5C 592.34,693.801 592.506,692.134 593,690.5C 593.333,691.167 593.667,691.833 594,692.5C 595.689,689.548 596.355,686.548 596,683.5C 597.154,684.743 598.488,685.743 600,686.5C 600.772,685.151 601.939,684.318 603.5,684C 598.908,678.71 600.241,675.877 607.5,675.5C 607.5,674.167 607.5,672.833 607.5,671.5C 605.857,671.48 604.524,672.147 603.5,673.5C 602.341,669.878 602.175,666.211 603,662.5C 604.085,663.293 605.252,663.96 606.5,664.5C 607.484,661.572 607.817,658.572 607.5,655.5C 606.167,655.5 604.833,655.5 603.5,655.5C 603.5,650.167 603.5,644.833 603.5,639.5C 604.833,639.5 606.167,639.5 607.5,639.5C 607.5,638.167 607.5,636.833 607.5,635.5C 604.214,634.793 600.881,634.46 597.5,634.5C 597.5,633.5 597.5,632.5 597.5,631.5C 596.5,631.5 595.5,631.5 594.5,631.5C 594.5,628.833 594.5,626.167 594.5,623.5C 592.5,623.5 590.5,623.5 588.5,623.5C 588.5,626.167 588.5,628.833 588.5,631.5C 585.5,632.833 582.5,632.833 579.5,631.5C 579.762,632.978 579.429,634.311 578.5,635.5C 578.167,634.833 577.833,634.167 577.5,633.5C 578.327,630.217 578.66,626.884 578.5,623.5C 577.167,623.5 575.833,623.5 574.5,623.5C 574.67,622.178 574.337,621.011 573.5,620C 575.651,619.735 577.318,618.735 578.5,617C 577.633,613.895 577.299,610.728 577.5,607.5C 576.325,607.719 575.325,607.386 574.5,606.5C 575.309,604.929 575.643,603.262 575.5,601.5C 572.996,602.639 570.33,603.306 567.5,603.5C 567.5,602.5 567.5,601.5 567.5,600.5C 569.199,600.66 570.866,600.494 572.5,600C 568.911,599.963 565.578,599.13 562.5,597.5C 561.572,599.335 560.406,599.668 559,598.5C 558.445,596.279 558.612,593.946 559.5,591.5C 555.142,592.254 552.142,594.588 550.5,598.5C 549.115,597.386 547.615,596.386 546,595.5C 541.627,588.652 536.794,582.318 531.5,576.5C 531.722,574.393 532.722,572.726 534.5,571.5C 532.607,569.779 530.941,567.945 529.5,566C 531.512,564.848 531.678,563.682 530,562.5C 528.26,563.716 527.26,565.382 527,567.5C 525.743,565.254 523.91,563.921 521.5,563.5C 521.719,562.325 521.386,561.325 520.5,560.5C 519.232,561.428 517.899,561.595 516.5,561C 519.144,558.725 519.144,556.391 516.5,554C 517.233,552.234 517.567,550.401 517.5,548.5C 516.178,548.67 515.011,548.337 514,547.5C 513.767,549.78 512.934,551.78 511.5,553.5C 509.958,552.253 508.458,552.253 507,553.5C 505.882,551.235 505.049,548.901 504.5,546.5C 503.127,546.657 501.793,546.49 500.5,546C 500.957,545.586 501.291,545.086 501.5,544.5C 500.052,543.646 498.719,542.646 497.5,541.5C 495.936,542.186 494.269,542.019 492.5,541C 493.308,540.692 493.975,540.192 494.5,539.5C 492.5,538.167 490.5,536.833 488.5,535.5C 490.343,535.245 492.343,535.078 494.5,535C 495.725,533.437 497.225,532.27 499,531.5C 503.147,533.043 503.981,532.209 501.5,529C 501.833,528.667 502.167,528.333 502.5,528C 501.207,527.51 499.873,527.343 498.5,527.5C 498.649,528.552 498.483,529.552 498,530.5C 495.478,527.628 493.645,527.962 492.5,531.5C 489.158,529.454 488.991,527.454 492,525.5C 492.95,526.022 493.784,526.689 494.5,527.5C 495.407,525.234 494.574,523.568 492,522.5C 487.558,525.152 486.724,524.318 489.5,520C 488.768,518.235 487.435,517.068 485.5,516.5C 486.641,515.575 486.641,514.741 485.5,514C 484.167,513.333 482.833,513.333 481.5,514C 481.273,515.135 480.94,516.302 480.5,517.5C 478.483,516.826 476.817,515.659 475.5,514C 474.207,513.51 472.873,513.343 471.5,513.5C 471.664,516.187 471.497,518.854 471,521.5C 467.483,521.638 463.983,521.138 460.5,520C 461.624,519.751 462.624,519.251 463.5,518.5C 463.167,518.167 462.833,517.833 462.5,517.5C 458.558,518.6 454.558,518.767 450.5,518C 447.663,515.481 446.996,512.481 448.5,509C 447.833,508.667 447.167,508.333 446.5,508C 449.036,507.661 451.536,507.161 454,506.5C 455.412,507.923 456.579,507.756 457.5,506C 456.567,504.392 457.233,503.559 459.5,503.5C 462.388,506.462 463.721,505.795 463.5,501.5C 458.406,500.581 453.406,499.247 448.5,497.5C 447.534,499.396 447.201,501.396 447.5,503.5C 440.721,502.8 434.388,503.8 428.5,506.5C 424.219,505.914 419.886,505.914 415.5,506.5C 415.662,504.473 415.495,502.473 415,500.5C 410.963,499.207 406.796,498.374 402.5,498C 406.5,497.333 406.5,496.667 402.5,496C 407.464,495.58 407.631,494.747 403,493.5C 400.501,494.083 398.501,495.416 397,497.5C 391.954,498.19 386.787,498.19 381.5,497.5C 380.167,498.167 378.833,498.833 377.5,499.5C 375.393,497.845 372.893,496.512 370,495.5C 363.023,499.411 356.023,499.411 349,495.5C 342.652,495.925 336.486,496.925 330.5,498.5C 329.5,498.333 328.5,498.167 327.5,498C 328.833,497.667 330.167,497.333 331.5,497C 329.667,496.833 327.833,496.667 326,496.5C 323.698,496.6 321.698,497.267 320,498.5C 319.517,497.552 319.351,496.552 319.5,495.5C 314.102,496.332 308.436,497.166 302.5,498C 302.957,498.414 303.291,498.914 303.5,499.5C 295.213,500.407 287.213,502.24 279.5,505C 278.663,506.011 278.33,507.178 278.5,508.5C 273.284,508.566 267.95,509.4 262.5,511C 265.482,511.498 268.482,511.665 271.5,511.5C 271.5,512.5 271.5,513.5 271.5,514.5C 269.473,514.338 267.473,514.505 265.5,515C 266.167,515.333 266.833,515.667 267.5,516C 265.655,517.128 263.655,517.628 261.5,517.5C 261.714,519.144 261.38,520.644 260.5,522C 257.047,522.25 253.714,521.917 250.5,521C 249.577,523.041 249.244,525.208 249.5,527.5C 245.675,526.789 242.675,527.955 240.5,531C 237.079,530.879 234.412,532.212 232.5,535C 233.252,535.671 233.586,536.504 233.5,537.5C 224.797,544.46 215.797,551.294 206.5,558C 201.936,563.567 196.769,568.4 191,572.5C 190.517,573.448 190.351,574.448 190.5,575.5C 183.611,582.564 176.777,589.897 170,597.5C 168.338,602.154 165.671,606.154 162,609.5C 154.667,621.834 148.167,634.501 142.5,647.5C 140.976,650.895 139.143,654.228 137,657.5C 135.921,660.063 135.421,662.729 135.5,665.5C 133.42,671.403 131.754,677.403 130.5,683.5C 129.883,683.611 129.383,683.944 129,684.5C 127.946,692.043 126.28,699.376 124,706.5C 123.501,710.821 123.334,715.154 123.5,719.5C 82.1667,719.5 40.8333,719.5 -0.5,719.5C -0.5,479.5 -0.5,239.5 -0.5,-0.5 Z"/></g>
<g><path style="opacity:1" fill="#8372af" d="M 393.5,163.5 C 380.82,162.61 368.153,161.61 355.5,160.5C 349.813,160.64 344.146,160.973 338.5,161.5C 338.918,160.778 339.584,160.278 340.5,160C 352.833,159.333 365.167,159.333 377.5,160C 382.993,161.009 388.326,162.175 393.5,163.5 Z"/></g>
<g><path style="opacity:1" fill="#665898" d="M 393.5,163.5 C 437.578,176.409 467.244,204.576 482.5,248C 482.272,248.399 481.938,248.565 481.5,248.5C 476.833,247.5 472.167,246.5 467.5,245.5C 432.258,243.806 400.258,252.973 371.5,273C 362.5,273.667 353.5,273.667 344.5,273C 343.627,271.955 342.627,271.122 341.5,270.5C 328.229,261.532 313.896,254.699 298.5,250C 288.985,248.386 279.651,246.553 270.5,244.5C 261.977,243.748 253.311,243.081 244.5,242.5C 244.786,240.723 245.453,239.056 246.5,237.5C 246.201,235.185 245.368,235.185 244,237.5C 243.833,236.833 243.667,236.167 243.5,235.5C 245.568,231.601 247.402,227.601 249,223.5C 249.308,224.308 249.808,224.975 250.5,225.5C 252.006,221.745 253.672,218.079 255.5,214.5C 256.736,215.246 258.07,215.579 259.5,215.5C 259.756,213.063 260.423,210.729 261.5,208.5C 261.167,207.833 260.833,207.167 260.5,206.5C 261.763,204.971 262.763,203.305 263.5,201.5C 282.726,178.071 307.726,164.738 338.5,161.5C 344.146,160.973 349.813,160.64 355.5,160.5C 368.153,161.61 380.82,162.61 393.5,163.5 Z"/></g>
<g><path style="opacity:1" fill="#72629e" d="M 263.5,201.5 C 262.763,203.305 261.763,204.971 260.5,206.5C 260.833,207.167 261.167,207.833 261.5,208.5C 260.423,210.729 259.756,213.063 259.5,215.5C 258.07,215.579 256.736,215.246 255.5,214.5C 253.672,218.079 252.006,221.745 250.5,225.5C 249.808,224.975 249.308,224.308 249,223.5C 247.402,227.601 245.568,231.601 243.5,235.5C 243.667,236.167 243.833,236.833 244,237.5C 245.368,235.185 246.201,235.185 246.5,237.5C 245.453,239.056 244.786,240.723 244.5,242.5C 253.311,243.081 261.977,243.748 270.5,244.5C 259.268,244.112 248.268,245.446 237.5,248.5C 236.427,247.749 236.26,246.749 237,245.5C 240.463,237.462 244.13,229.462 248,221.5C 252.196,217.099 255.362,212.099 257.5,206.5C 259.563,204.758 261.563,203.091 263.5,201.5 Z"/></g>
<g><path style="opacity:1" fill="#c9abdd" d="M 467.5,245.5 C 473.794,248.16 480.128,250.827 486.5,253.5C 489.074,257.751 492.741,260.418 497.5,261.5C 496.289,262.72 496.289,263.887 497.5,265C 499.441,265.743 501.274,265.576 503,264.5C 505.416,269.246 507.083,274.246 508,279.5C 508.333,279.167 508.667,278.833 509,278.5C 510.823,287.409 511.657,296.409 511.5,305.5C 507.019,310.841 503.519,316.841 501,323.5C 497.629,325.577 495.796,328.577 495.5,332.5C 492.885,333.45 490.885,335.117 489.5,337.5C 486.953,338.934 484.619,340.6 482.5,342.5C 473.764,346.529 464.764,350.029 455.5,353C 445.696,354.591 436.029,354.758 426.5,353.5C 433.257,353.877 439.924,353.377 446.5,352C 449.175,349.808 450.508,347.308 450.5,344.5C 446.889,345.262 443.222,345.762 439.5,346C 440.167,346.333 440.833,346.667 441.5,347C 439.045,348.54 436.379,348.874 433.5,348C 434.833,347.667 436.167,347.333 437.5,347C 433.5,346.333 429.5,346.333 425.5,347C 427.5,347.333 429.5,347.667 431.5,348C 427.781,348.388 424.114,349.055 420.5,350C 422.881,350.223 424.547,351.39 425.5,353.5C 404.457,350.228 388.29,339.561 377,321.5C 373.342,314.679 370.175,307.679 367.5,300.5C 371.082,303.566 373.082,307.566 373.5,312.5C 374.822,312.67 375.989,312.337 377,311.5C 377.333,312.833 377.667,314.167 378,315.5C 379.506,308.567 379.839,301.567 379,294.5C 378.667,294.833 378.333,295.167 378,295.5C 377.16,292.536 376.16,292.203 375,294.5C 372.619,293.565 370.119,293.232 367.5,293.5C 367.5,291.5 367.5,289.5 367.5,287.5C 366.167,287.5 364.833,287.5 363.5,287.5C 363.833,284.5 362.5,283.167 359.5,283.5C 359.64,281.876 358.973,280.71 357.5,280C 362.327,279.116 366.994,279.616 371.5,281.5C 372.5,281 373.5,280.5 374.5,280C 374.667,278.167 374.833,276.333 375,274.5C 373.75,275.573 372.416,275.573 371,274.5C 369.278,274.611 369.112,275.111 370.5,276C 362.685,276.341 355.019,276.507 347.5,276.5C 343.177,276.692 341.177,274.692 341.5,270.5C 342.627,271.122 343.627,271.955 344.5,273C 353.5,273.667 362.5,273.667 371.5,273C 400.258,252.973 432.258,243.806 467.5,245.5 Z"/></g>
<g><path style="opacity:1" fill="#523667" d="M 464.5,268.5 C 462.618,268.511 460.618,268.844 458.5,269.5C 451.656,267.965 444.989,265.965 438.5,263.5C 432.464,263.36 426.464,263.693 420.5,264.5C 421.263,263.732 422.263,263.232 423.5,263C 434.606,262.053 445.606,262.719 456.5,265C 459.374,265.942 462.04,267.109 464.5,268.5 Z"/></g>
<g><path style="opacity:1" fill="#381c4f" d="M 438.5,263.5 C 444.989,265.965 451.656,267.965 458.5,269.5C 460.618,268.844 462.618,268.511 464.5,268.5C 471.628,270.628 476.961,274.961 480.5,281.5C 479.548,282.452 478.548,283.452 477.5,284.5C 478.025,285.192 478.692,285.692 479.5,286C 474.246,287.271 468.913,287.771 463.5,287.5C 463.351,286.448 463.517,285.448 464,284.5C 464.914,285.654 465.747,285.487 466.5,284C 462.755,280.858 458.589,280.025 454,281.5C 452.715,281.05 451.548,280.383 450.5,279.5C 449.833,280.5 449.167,281.5 448.5,282.5C 447.209,279.544 445.209,277.21 442.5,275.5C 441.94,273.146 441.273,270.813 440.5,268.5C 437.807,267.468 437.14,265.802 438.5,263.5 Z"/></g>
<g><path style="opacity:1" fill="#ccaee1" d="M 270.5,244.5 C 279.651,246.553 288.985,248.386 298.5,250C 313.896,254.699 328.229,261.532 341.5,270.5C 341.177,274.692 343.177,276.692 347.5,276.5C 355.019,276.507 362.685,276.341 370.5,276C 369.112,275.111 369.278,274.611 371,274.5C 372.416,275.573 373.75,275.573 375,274.5C 374.833,276.333 374.667,278.167 374.5,280C 373.5,280.5 372.5,281 371.5,281.5C 366.994,279.616 362.327,279.116 357.5,280C 358.973,280.71 359.64,281.876 359.5,283.5C 362.5,283.167 363.833,284.5 363.5,287.5C 364.833,287.5 366.167,287.5 367.5,287.5C 367.5,289.5 367.5,291.5 367.5,293.5C 370.119,293.232 372.619,293.565 375,294.5C 376.16,292.203 377.16,292.536 378,295.5C 378.333,295.167 378.667,294.833 379,294.5C 379.839,301.567 379.506,308.567 378,315.5C 377.667,314.167 377.333,312.833 377,311.5C 375.989,312.337 374.822,312.67 373.5,312.5C 373.082,307.566 371.082,303.566 367.5,300.5C 366.551,298.263 365.884,295.929 365.5,293.5C 362.216,293.277 359.049,292.61 356,291.5C 354.951,293.107 353.451,293.773 351.5,293.5C 351.88,296.792 350.547,299.125 347.5,300.5C 344.948,299.56 344.114,300.56 345,303.5C 345.654,302.304 346.154,302.304 346.5,303.5C 343.028,311.581 339.361,319.581 335.5,327.5C 323.848,343.855 307.848,352.522 287.5,353.5C 282.125,353.828 276.792,353.495 271.5,352.5C 261.977,348.823 251.643,345.489 240.5,342.5C 240.657,341.127 240.49,339.793 240,338.5C 238.657,339.214 237.324,338.88 236,337.5C 234.16,338.833 233.66,338.666 234.5,337C 221.446,327.931 213.113,315.597 209.5,300C 209.637,294.976 209.803,289.809 210,284.5C 210.807,282.423 211.974,280.589 213.5,279C 212.39,276.263 212.223,273.429 213,270.5C 216.011,264.152 220.177,258.652 225.5,254C 229.677,252.263 233.677,250.43 237.5,248.5C 248.268,245.446 259.268,244.112 270.5,244.5 Z"/></g>
<g><path style="opacity:1" fill="#4a2e60" d="M 275.5,262.5 C 277.5,262.5 279.5,262.5 281.5,262.5C 280.384,267.273 279.051,271.94 277.5,276.5C 270.156,275.832 262.822,274.999 255.5,274C 254.263,273.768 253.263,273.268 252.5,272.5C 257.787,274.29 262.787,273.79 267.5,271C 266.833,270.667 266.167,270.333 265.5,270C 269.801,268.694 273.134,266.194 275.5,262.5 Z"/></g>
<g><path style="opacity:1" fill="#5b3f6e" d="M 275.5,262.5 C 273.134,266.194 269.801,268.694 265.5,270C 266.167,270.333 266.833,270.667 267.5,271C 262.787,273.79 257.787,274.29 252.5,272.5C 250.784,272.371 249.117,272.038 247.5,271.5C 253.669,266.884 260.669,264.218 268.5,263.5C 270.806,263.007 273.139,262.674 275.5,262.5 Z"/></g>
<g><path style="opacity:1" fill="#a183b7" d="M 287.5,262.5 C 285.5,262.5 283.5,262.5 281.5,262.5C 279.5,262.5 277.5,262.5 275.5,262.5C 273.139,262.674 270.806,263.007 268.5,263.5C 268.611,262.883 268.944,262.383 269.5,262C 275.681,261.181 281.681,261.347 287.5,262.5 Z"/></g>
<g><path style="opacity:1" fill="#2e1347" d="M 247.5,271.5 C 249.117,272.038 250.784,272.371 252.5,272.5C 253.263,273.268 254.263,273.768 255.5,274C 262.822,274.999 270.156,275.832 277.5,276.5C 278.376,276.369 279.043,276.702 279.5,277.5C 276.893,278.318 274.226,278.818 271.5,279C 274.121,279.939 276.788,280.772 279.5,281.5C 278.335,282.584 277.002,283.417 275.5,284C 276.593,285.365 277.926,285.699 279.5,285C 281.875,282.046 284.375,281.88 287,284.5C 289.508,284.152 292.008,284.819 294.5,286.5C 295.386,287.325 295.719,288.325 295.5,289.5C 298.711,289.988 301.544,289.321 304,287.5C 305.824,288.749 305.657,289.915 303.5,291C 300.774,291.182 298.107,291.682 295.5,292.5C 300.33,293.527 304.996,294.027 309.5,294C 308.892,294.87 308.059,295.37 307,295.5C 286.465,294.56 265.965,293.227 245.5,291.5C 245.167,292.833 244.833,294.167 244.5,295.5C 242.677,296.747 240.677,297.414 238.5,297.5C 239.766,302.495 239.766,307.495 238.5,312.5C 239.033,316.568 240.867,319.901 244,322.5C 244.811,321.04 245.645,320.707 246.5,321.5C 245.253,323.042 245.253,324.542 246.5,326C 245.906,326.464 245.239,326.631 244.5,326.5C 234.823,316.484 231.323,304.484 234,290.5C 236.546,282.727 241.046,276.394 247.5,271.5 Z"/></g>
<g><path style="opacity:1" fill="#bca4da" d="M 367.5,300.5 C 360.874,292.024 354.874,292.524 349.5,302C 347.597,305.646 346.097,309.479 345,313.5C 342.319,318.606 339.153,323.272 335.5,327.5C 339.361,319.581 343.028,311.581 346.5,303.5C 346.154,302.304 345.654,302.304 345,303.5C 344.114,300.56 344.948,299.56 347.5,300.5C 350.547,299.125 351.88,296.792 351.5,293.5C 353.451,293.773 354.951,293.107 356,291.5C 359.049,292.61 362.216,293.277 365.5,293.5C 365.884,295.929 366.551,298.263 367.5,300.5 Z"/></g>
<g><path style="opacity:1" fill="#301548" d="M 438.5,263.5 C 437.14,265.802 437.807,267.468 440.5,268.5C 441.273,270.813 441.94,273.146 442.5,275.5C 445.209,277.21 447.209,279.544 448.5,282.5C 449.167,281.5 449.833,280.5 450.5,279.5C 451.548,280.383 452.715,281.05 454,281.5C 458.589,280.025 462.755,280.858 466.5,284C 465.747,285.487 464.914,285.654 464,284.5C 463.517,285.448 463.351,286.448 463.5,287.5C 468.913,287.771 474.246,287.271 479.5,286C 478.692,285.692 478.025,285.192 477.5,284.5C 478.548,283.452 479.548,282.452 480.5,281.5C 490.599,305.535 484.265,324.202 461.5,337.5C 457.285,335.564 452.619,334.897 447.5,335.5C 447.817,332.428 447.484,329.428 446.5,326.5C 443.878,325.048 442.212,322.881 441.5,320C 439.191,319.244 437.191,319.744 435.5,321.5C 434.264,320.754 432.93,320.421 431.5,320.5C 431.5,321.833 431.5,323.167 431.5,324.5C 429.5,324.5 427.5,324.5 425.5,324.5C 425.52,322.857 424.853,321.524 423.5,320.5C 420.914,319.52 418.247,319.187 415.5,319.5C 415.5,321.833 415.5,324.167 415.5,326.5C 411.107,326.457 410.774,326.957 414.5,328C 412.086,329.877 409.753,331.044 407.5,331.5C 408.767,333.371 408.767,335.204 407.5,337C 409.107,336.981 410.774,336.815 412.5,336.5C 413.071,338.36 413.071,340.027 412.5,341.5C 395.948,335.781 385.448,324.448 381,307.5C 378.96,294.808 382.794,284.308 392.5,276C 400.792,269.689 410.126,265.856 420.5,264.5C 426.464,263.693 432.464,263.36 438.5,263.5 Z"/></g>
<g><path style="opacity:1" fill="#381d4e" d="M 471.5,292.5 C 474.167,292.5 476.833,292.5 479.5,292.5C 479.5,299.167 479.5,305.833 479.5,312.5C 477.063,312.756 474.729,313.423 472.5,314.5C 471.784,313.689 470.95,313.022 470,312.5C 467.207,314.291 464.207,315.625 461,316.5C 458.263,316.624 457.429,315.624 458.5,313.5C 457.675,312.614 456.675,312.281 455.5,312.5C 455.663,310.143 455.497,307.81 455,305.5C 452.876,304.773 450.709,304.106 448.5,303.5C 446.476,301.642 444.309,299.975 442,298.5C 441.692,299.308 441.192,299.975 440.5,300.5C 439.167,298.833 439.167,297.167 440.5,295.5C 444.367,294.865 448.2,294.199 452,293.5C 455.984,293.559 459.984,293.892 464,294.5C 466.607,293.877 469.107,293.21 471.5,292.5 Z"/></g>
<g><path style="opacity:1" fill="#665898" d="M 367.5,300.5 C 370.175,307.679 373.342,314.679 377,321.5C 388.29,339.561 404.457,350.228 425.5,353.5C 425.833,353.5 426.167,353.5 426.5,353.5C 436.029,354.758 445.696,354.591 455.5,353C 464.764,350.029 473.764,346.529 482.5,342.5C 485.015,344.842 487.515,344.842 490,342.5C 491.031,343.7 491.865,345.034 492.5,346.5C 492.167,347.167 491.833,347.833 491.5,348.5C 489.477,346.584 487.143,345.751 484.5,346C 485.328,346.915 486.328,347.581 487.5,348C 486.978,348.561 486.645,349.228 486.5,350C 487.37,352.277 488.037,354.611 488.5,357C 488.047,361.76 488.047,366.427 488.5,371C 486.832,376.017 485.165,381.017 483.5,386C 484.328,386.915 485.328,387.581 486.5,388C 484.209,388.015 482.042,388.182 480,388.5C 479.034,392.118 479.534,395.451 481.5,398.5C 478.167,399.167 474.833,399.833 471.5,400.5C 472.238,402.94 473.571,404.94 475.5,406.5C 474.41,408.003 473.243,408.336 472,407.5C 471.595,411.213 471.595,414.879 472,418.5C 470.667,419.167 469.667,420.167 469,421.5C 468.667,421.167 468.333,420.833 468,420.5C 467.667,421.5 467.333,422.5 467,423.5C 466.667,423.167 466.333,422.833 466,422.5C 461.643,425.357 458.143,429.023 455.5,433.5C 451.884,432.016 450.884,433.016 452.5,436.5C 439.562,443.468 425.895,448.468 411.5,451.5C 378.536,454.991 345.536,455.324 312.5,452.5C 304.673,450.508 296.673,448.675 288.5,447C 281.299,444.107 274.299,440.941 267.5,437.5C 248.665,425.315 236.331,408.315 230.5,386.5C 229.685,376.279 228.019,366.279 225.5,356.5C 226.387,352.85 227.053,349.183 227.5,345.5C 229.124,345.36 230.29,346.027 231,347.5C 231.49,346.207 231.657,344.873 231.5,343.5C 236.694,345.678 241.86,348.012 247,350.5C 247.355,349.491 248.188,348.824 249.5,348.5C 256.1,350.42 262.767,352.253 269.5,354C 275.681,354.819 281.681,354.653 287.5,353.5C 307.848,352.522 323.848,343.855 335.5,327.5C 339.153,323.272 342.319,318.606 345,313.5C 346.097,309.479 347.597,305.646 349.5,302C 354.874,292.524 360.874,292.024 367.5,300.5 Z"/></g>
<g><path style="opacity:1" fill="#b6a0d8" d="M 467.5,245.5 C 472.167,246.5 476.833,247.5 481.5,248.5C 483.949,249.791 486.616,250.791 489.5,251.5C 491.59,254.552 494.59,256.219 498.5,256.5C 500.886,259.888 503.886,262.555 507.5,264.5C 507.291,265.086 506.957,265.586 506.5,266C 508.303,266.637 509.636,267.803 510.5,269.5C 511.324,272.785 511.824,276.118 512,279.5C 512.333,279.167 512.667,278.833 513,278.5C 513.29,280.044 513.956,281.377 515,282.5C 515.5,292.161 515.666,301.828 515.5,311.5C 516.5,311.5 517.5,311.5 518.5,311.5C 519.025,330.529 519.358,349.529 519.5,368.5C 518.675,369.386 517.675,369.719 516.5,369.5C 517.32,373.145 515.987,375.478 512.5,376.5C 511.534,374.604 511.201,372.604 511.5,370.5C 506.318,370.443 506.318,369.776 511.5,368.5C 509.955,367.548 508.288,367.215 506.5,367.5C 507.277,356.852 507.61,346.185 507.5,335.5C 508.833,335.5 510.167,335.5 511.5,335.5C 511.115,329.582 510.949,323.582 511,317.5C 509.847,320.711 509.18,324.044 509,327.5C 508.173,323.459 508.34,319.459 509.5,315.5C 510.086,315.709 510.586,316.043 511,316.5C 511.499,312.848 511.665,309.182 511.5,305.5C 511.657,296.409 510.823,287.409 509,278.5C 508.667,278.833 508.333,279.167 508,279.5C 507.083,274.246 505.416,269.246 503,264.5C 501.274,265.576 499.441,265.743 497.5,265C 496.289,263.887 496.289,262.72 497.5,261.5C 492.741,260.418 489.074,257.751 486.5,253.5C 480.128,250.827 473.794,248.16 467.5,245.5 Z"/></g>
<g><path style="opacity:1" fill="#361a4d" d="M 281.5,262.5 C 283.5,262.5 285.5,262.5 287.5,262.5C 304.284,263.221 318.45,269.554 330,281.5C 335.731,287.76 338.065,295.094 337,303.5C 335.116,316.291 328.95,326.291 318.5,333.5C 318.5,332.5 318.5,331.5 318.5,330.5C 317.022,330.762 315.689,330.429 314.5,329.5C 316.991,328.459 316.991,327.626 314.5,327C 315.167,326.667 315.833,326.333 316.5,326C 313.534,324.734 310.534,323.567 307.5,322.5C 307.167,321.833 306.833,321.167 306.5,320.5C 307.991,319.756 309.491,319.09 311,318.5C 311.333,318.833 311.667,319.167 312,319.5C 312.402,318.128 312.902,316.795 313.5,315.5C 310.484,315.771 307.818,314.604 305.5,312C 305.833,311.667 306.167,311.333 306.5,311C 305.552,310.517 304.552,310.351 303.5,310.5C 303.5,313.5 303.5,316.5 303.5,319.5C 296.973,319.649 290.307,320.482 283.5,322C 282.167,323 280.833,324 279.5,325C 276.774,325.182 274.107,325.682 271.5,326.5C 272.376,327.251 273.376,327.751 274.5,328C 272.751,331.525 270.584,332.025 268,329.5C 266.667,330.833 265.333,332.167 264,333.5C 260.924,332.712 257.758,332.212 254.5,332C 255.554,330.612 255.72,329.112 255,327.5C 253.513,328.253 253.346,329.086 254.5,330C 253.5,330.333 252.5,330.667 251.5,331C 252.598,331.77 252.598,332.603 251.5,333.5C 248.833,331.5 246.5,329.167 244.5,326.5C 245.239,326.631 245.906,326.464 246.5,326C 245.253,324.542 245.253,323.042 246.5,321.5C 245.645,320.707 244.811,321.04 244,322.5C 240.867,319.901 239.033,316.568 238.5,312.5C 239.766,307.495 239.766,302.495 238.5,297.5C 240.677,297.414 242.677,296.747 244.5,295.5C 244.833,294.167 245.167,292.833 245.5,291.5C 265.965,293.227 286.465,294.56 307,295.5C 308.059,295.37 308.892,294.87 309.5,294C 304.996,294.027 300.33,293.527 295.5,292.5C 298.107,291.682 300.774,291.182 303.5,291C 305.657,289.915 305.824,288.749 304,287.5C 301.544,289.321 298.711,289.988 295.5,289.5C 295.719,288.325 295.386,287.325 294.5,286.5C 292.008,284.819 289.508,284.152 287,284.5C 284.375,281.88 281.875,282.046 279.5,285C 277.926,285.699 276.593,285.365 275.5,284C 277.002,283.417 278.335,282.584 279.5,281.5C 276.788,280.772 274.121,279.939 271.5,279C 274.226,278.818 276.893,278.318 279.5,277.5C 279.043,276.702 278.376,276.369 277.5,276.5C 279.051,271.94 280.384,267.273 281.5,262.5 Z"/></g>
<g><path style="opacity:1" fill="#301447" d="M 318.5,333.5 C 296.273,349.483 273.94,349.483 251.5,333.5C 252.598,332.603 252.598,331.77 251.5,331C 252.5,330.667 253.5,330.333 254.5,330C 253.346,329.086 253.513,328.253 255,327.5C 255.72,329.112 255.554,330.612 254.5,332C 257.758,332.212 260.924,332.712 264,333.5C 265.333,332.167 266.667,330.833 268,329.5C 270.584,332.025 272.751,331.525 274.5,328C 273.376,327.751 272.376,327.251 271.5,326.5C 274.107,325.682 276.774,325.182 279.5,325C 280.833,324 282.167,323 283.5,322C 290.307,320.482 296.973,319.649 303.5,319.5C 303.5,316.5 303.5,313.5 303.5,310.5C 304.552,310.351 305.552,310.517 306.5,311C 306.167,311.333 305.833,311.667 305.5,312C 307.818,314.604 310.484,315.771 313.5,315.5C 312.902,316.795 312.402,318.128 312,319.5C 311.667,319.167 311.333,318.833 311,318.5C 309.491,319.09 307.991,319.756 306.5,320.5C 306.833,321.167 307.167,321.833 307.5,322.5C 310.534,323.567 313.534,324.734 316.5,326C 315.833,326.333 315.167,326.667 314.5,327C 316.991,327.626 316.991,328.459 314.5,329.5C 315.689,330.429 317.022,330.762 318.5,330.5C 318.5,331.5 318.5,332.5 318.5,333.5 Z"/></g>
<g><path style="opacity:1" fill="#2d1144" d="M 461.5,337.5 C 445.697,346.019 429.364,347.353 412.5,341.5C 413.071,340.027 413.071,338.36 412.5,336.5C 410.774,336.815 409.107,336.981 407.5,337C 408.767,335.204 408.767,333.371 407.5,331.5C 409.753,331.044 412.086,329.877 414.5,328C 410.774,326.957 411.107,326.457 415.5,326.5C 415.5,324.167 415.5,321.833 415.5,319.5C 418.247,319.187 420.914,319.52 423.5,320.5C 424.853,321.524 425.52,322.857 425.5,324.5C 427.5,324.5 429.5,324.5 431.5,324.5C 431.5,323.167 431.5,321.833 431.5,320.5C 432.93,320.421 434.264,320.754 435.5,321.5C 437.191,319.744 439.191,319.244 441.5,320C 442.212,322.881 443.878,325.048 446.5,326.5C 447.484,329.428 447.817,332.428 447.5,335.5C 452.619,334.897 457.285,335.564 461.5,337.5 Z"/></g>
<g><path style="opacity:1" fill="#6b5e99" d="M 224.5,331.5 C 231.485,339.152 239.818,344.819 249.5,348.5C 248.188,348.824 247.355,349.491 247,350.5C 241.86,348.012 236.694,345.678 231.5,343.5C 231.657,344.873 231.49,346.207 231,347.5C 230.29,346.027 229.124,345.36 227.5,345.5C 227.053,349.183 226.387,352.85 225.5,356.5C 228.019,366.279 229.685,376.279 230.5,386.5C 229.685,385.571 228.852,384.571 228,383.5C 226.893,375.471 225.726,367.471 224.5,359.5C 224.047,349.987 224.047,340.653 224.5,331.5 Z"/></g>
<g><path style="opacity:1" fill="#ceb2e4" d="M 426.5,353.5 C 426.167,353.5 425.833,353.5 425.5,353.5C 424.547,351.39 422.881,350.223 420.5,350C 424.114,349.055 427.781,348.388 431.5,348C 429.5,347.667 427.5,347.333 425.5,347C 429.5,346.333 433.5,346.333 437.5,347C 436.167,347.333 434.833,347.667 433.5,348C 436.379,348.874 439.045,348.54 441.5,347C 440.833,346.667 440.167,346.333 439.5,346C 443.222,345.762 446.889,345.262 450.5,344.5C 450.508,347.308 449.175,349.808 446.5,352C 439.924,353.377 433.257,353.877 426.5,353.5 Z"/></g>
<g><path style="opacity:1" fill="#776aa3" d="M 495.5,332.5 C 496.945,351.61 494.611,370.276 488.5,388.5C 488.458,381.394 489.792,374.728 492.5,368.5C 492.881,357.218 493.881,346.051 495.5,335C 493.609,335.763 491.609,336.597 489.5,337.5C 490.885,335.117 492.885,333.45 495.5,332.5 Z"/></g>
<g><path style="opacity:1" fill="#8c7fb9" d="M 224.5,331.5 C 224.047,340.653 224.047,349.987 224.5,359.5C 223.778,359.082 223.278,358.416 223,357.5C 222.168,348.482 222.335,339.482 223.5,330.5C 224.107,330.624 224.44,330.957 224.5,331.5 Z"/></g>
<g><path style="opacity:1" fill="#675b97" d="M 488.5,388.5 C 485.959,397.725 481.793,406.059 476,413.5C 475.529,415.246 474.862,416.913 474,418.5C 470.939,422.058 467.772,425.391 464.5,428.5C 460.477,431.2 456.477,433.867 452.5,436.5C 450.884,433.016 451.884,432.016 455.5,433.5C 458.143,429.023 461.643,425.357 466,422.5C 466.333,422.833 466.667,423.167 467,423.5C 467.333,422.5 467.667,421.5 468,420.5C 468.333,420.833 468.667,421.167 469,421.5C 469.667,420.167 470.667,419.167 472,418.5C 471.595,414.879 471.595,411.213 472,407.5C 473.243,408.336 474.41,408.003 475.5,406.5C 473.571,404.94 472.238,402.94 471.5,400.5C 474.833,399.833 478.167,399.167 481.5,398.5C 479.534,395.451 479.034,392.118 480,388.5C 482.042,388.182 484.209,388.015 486.5,388C 485.328,387.581 484.328,386.915 483.5,386C 485.165,381.017 486.832,376.017 488.5,371C 488.047,366.427 488.047,361.76 488.5,357C 488.037,354.611 487.37,352.277 486.5,350C 486.645,349.228 486.978,348.561 487.5,348C 486.328,347.581 485.328,346.915 484.5,346C 487.143,345.751 489.477,346.584 491.5,348.5C 491.833,347.833 492.167,347.167 492.5,346.5C 491.865,345.034 491.031,343.7 490,342.5C 487.515,344.842 485.015,344.842 482.5,342.5C 484.619,340.6 486.953,338.934 489.5,337.5C 491.609,336.597 493.609,335.763 495.5,335C 493.881,346.051 492.881,357.218 492.5,368.5C 489.792,374.728 488.458,381.394 488.5,388.5 Z"/></g>
<g><path style="opacity:1" fill="#b19fd7" d="M 464.5,428.5 C 464.279,429.735 463.612,430.735 462.5,431.5C 462.709,432.086 463.043,432.586 463.5,433C 459.622,433.949 459.622,435.115 463.5,436.5C 462.609,437.59 461.609,437.59 460.5,436.5C 458.954,437.684 457.287,438.684 455.5,439.5C 457.812,439.068 460.312,439.068 463,439.5C 463.848,445.086 463.015,450.419 460.5,455.5C 459.604,452.856 458.771,450.19 458,447.5C 457.08,450.101 456.413,452.768 456,455.5C 451.236,454.608 446.403,454.608 441.5,455.5C 441.892,452.278 441.392,449.278 440,446.5C 435.867,447.291 431.7,448.124 427.5,449C 429.405,449.826 429.739,450.993 428.5,452.5C 425.075,453.091 422.075,454.425 419.5,456.5C 421.833,458 424.167,459.5 426.5,461C 422.857,462.137 419.19,462.971 415.5,463.5C 415.649,462.448 415.483,461.448 415,460.5C 414.213,461.711 413.546,462.711 413,463.5C 411.779,462.728 410.779,461.728 410,460.5C 408.796,461.471 408.296,462.471 408.5,463.5C 405.637,460.398 402.304,459.731 398.5,461.5C 394.101,461.472 393.768,460.972 397.5,460C 394.167,459.333 390.833,459.333 387.5,460C 388.938,460.219 390.271,460.719 391.5,461.5C 391.167,461.833 390.833,462.167 390.5,462.5C 382.466,459.885 375.3,460.218 369,463.5C 364.629,460.915 360.296,460.915 356,463.5C 353.512,460.313 350.845,459.979 348,462.5C 346.151,461.439 344.151,460.773 342,460.5C 334.692,463.268 327.192,463.934 319.5,462.5C 318.672,461.585 317.672,460.919 316.5,460.5C 314.958,461.747 313.458,461.747 312,460.5C 311.667,461.5 311.333,462.5 311,463.5C 309.635,459.777 307.968,459.777 306,463.5C 305.581,462.328 304.915,461.328 304,460.5C 303.15,461.424 302.15,461.424 301,460.5C 300.241,461.646 299.574,462.646 299,463.5C 294.498,460.792 294.665,458.958 299.5,458C 298.437,456.812 297.103,456.312 295.5,456.5C 295.5,455.5 295.5,454.5 295.5,453.5C 292.833,453.833 290.167,454.167 287.5,454.5C 287.817,457.572 287.484,460.572 286.5,463.5C 285.324,459.425 284.824,455.425 285,451.5C 284.667,451.167 284.333,450.833 284,450.5C 282.981,451.687 281.814,452.687 280.5,453.5C 279.614,452.675 279.281,451.675 279.5,450.5C 276.833,450.5 274.167,450.5 271.5,450.5C 271.719,449.325 271.386,448.325 270.5,447.5C 267.582,445.371 265.249,443.371 263.5,441.5C 264.549,439.784 265.882,438.451 267.5,437.5C 274.299,440.941 281.299,444.107 288.5,447C 296.673,448.675 304.673,450.508 312.5,452.5C 316.727,453.201 321.06,454.034 325.5,455C 348.833,455.667 372.167,455.667 395.5,455C 401.006,454.104 406.339,452.938 411.5,451.5C 425.895,448.468 439.562,443.468 452.5,436.5C 456.477,433.867 460.477,431.2 464.5,428.5 Z"/></g>
<g><path style="opacity:1" fill="#9682be" d="M 411.5,451.5 C 406.339,452.938 401.006,454.104 395.5,455C 372.167,455.667 348.833,455.667 325.5,455C 321.06,454.034 316.727,453.201 312.5,452.5C 345.536,455.324 378.536,454.991 411.5,451.5 Z"/></g>
<g><path style="opacity:1" fill="#ae9dd6" d="M 415.5,506.5 C 387.118,500.418 358.452,498.918 329.5,502C 320.466,502.714 311.799,504.547 303.5,507.5C 301.084,508.968 298.417,509.635 295.5,509.5C 287.334,510.276 280.001,513.109 273.5,518C 270.833,518.667 268.167,519.333 265.5,520C 254.483,525.247 243.816,531.081 233.5,537.5C 233.586,536.504 233.252,535.671 232.5,535C 234.412,532.212 237.079,530.879 240.5,531C 242.675,527.955 245.675,526.789 249.5,527.5C 249.244,525.208 249.577,523.041 250.5,521C 253.714,521.917 257.047,522.25 260.5,522C 261.38,520.644 261.714,519.144 261.5,517.5C 263.655,517.628 265.655,517.128 267.5,516C 266.833,515.667 266.167,515.333 265.5,515C 267.473,514.505 269.473,514.338 271.5,514.5C 271.5,513.5 271.5,512.5 271.5,511.5C 268.482,511.665 265.482,511.498 262.5,511C 267.95,509.4 273.284,508.566 278.5,508.5C 278.33,507.178 278.663,506.011 279.5,505C 287.213,502.24 295.213,500.407 303.5,499.5C 303.291,498.914 302.957,498.414 302.5,498C 308.436,497.166 314.102,496.332 319.5,495.5C 319.351,496.552 319.517,497.552 320,498.5C 321.698,497.267 323.698,496.6 326,496.5C 327.833,496.667 329.667,496.833 331.5,497C 330.167,497.333 328.833,497.667 327.5,498C 328.5,498.167 329.5,498.333 330.5,498.5C 336.486,496.925 342.652,495.925 349,495.5C 356.023,499.411 363.023,499.411 370,495.5C 372.893,496.512 375.393,497.845 377.5,499.5C 378.833,498.833 380.167,498.167 381.5,497.5C 386.787,498.19 391.954,498.19 397,497.5C 398.501,495.416 400.501,494.083 403,493.5C 407.631,494.747 407.464,495.58 402.5,496C 406.5,496.667 406.5,497.333 402.5,498C 406.796,498.374 410.963,499.207 415,500.5C 415.495,502.473 415.662,504.473 415.5,506.5 Z"/></g>
<g><path style="opacity:1" fill="#6c5d9a" d="M 415.5,506.5 C 417.751,507.015 419.751,508.015 421.5,509.5C 418.65,509.364 415.817,509.031 413,508.5C 408.242,508.86 405.076,509.86 403.5,511.5C 398.912,510.216 394.245,509.382 389.5,509C 390.939,508.009 391.939,506.676 392.5,505C 390.956,504.71 389.623,504.044 388.5,503C 373.822,502.167 359.155,502.334 344.5,503.5C 342.445,505.555 340.779,507.888 339.5,510.5C 338.311,511.429 336.978,511.762 335.5,511.5C 336.482,506.283 334.982,504.95 331,507.5C 330.085,506.672 329.419,505.672 329,504.5C 327.372,505.01 325.539,505.01 323.5,504.5C 318.953,505.738 314.453,507.072 310,508.5C 307.901,507.713 305.734,507.38 303.5,507.5C 311.799,504.547 320.466,502.714 329.5,502C 358.452,498.918 387.118,500.418 415.5,506.5 Z"/></g>
<g><path style="opacity:1" fill="#665898" d="M 421.5,509.5 C 426.321,510.039 430.988,511.205 435.5,513C 444.33,517.122 453.33,520.789 462.5,524C 470.291,528.622 477.958,533.456 485.5,538.5C 485.714,540.144 485.38,541.644 484.5,543C 485.448,543.483 486.448,543.649 487.5,543.5C 486.451,547.831 488.118,549.997 492.5,550C 494.376,552.046 496.376,553.879 498.5,555.5C 497.675,556.386 496.675,556.719 495.5,556.5C 495.5,557.5 495.5,558.5 495.5,559.5C 498.187,559.336 500.854,559.503 503.5,560C 504.973,560.71 505.64,561.876 505.5,563.5C 507.773,562.265 509.606,562.598 511,564.5C 513.044,563.228 514.878,563.561 516.5,565.5C 515.833,566.167 515.167,566.833 514.5,567.5C 515.274,568.711 516.107,568.711 517,567.5C 517.216,569.384 517.883,571.051 519,572.5C 519.333,571.833 519.667,571.167 520,570.5C 521.392,573.896 523.225,574.563 525.5,572.5C 526.283,574.288 527.616,575.288 529.5,575.5C 529.7,578.386 530.7,580.886 532.5,583C 531.135,584.682 529.635,584.849 528,583.5C 527.167,585.667 525.667,587.167 523.5,588C 525.481,588.605 525.815,589.605 524.5,591C 528.041,591.027 531.041,592.194 533.5,594.5C 534.281,593.271 534.781,591.938 535,590.5C 536.008,592.259 537.508,593.426 539.5,594C 537.032,595.303 534.699,596.803 532.5,598.5C 530.929,597.691 529.262,597.357 527.5,597.5C 527.34,599.199 527.506,600.866 528,602.5C 528.915,601.672 529.581,600.672 530,599.5C 531.476,604.564 533.643,604.731 536.5,600C 536.167,599.667 535.833,599.333 535.5,599C 536.908,598.685 538.241,599.018 539.5,600C 539.167,600.333 538.833,600.667 538.5,601C 540.906,602.622 542.739,604.789 544,607.5C 545.729,604.921 547.562,604.921 549.5,607.5C 551.158,610.161 552.824,612.827 554.5,615.5C 552.711,616.623 552.378,617.956 553.5,619.5C 554.167,618.833 554.833,618.167 555.5,617.5C 556.524,618.853 557.857,619.52 559.5,619.5C 559.337,621.857 559.503,624.19 560,626.5C 560.422,624.574 561.589,623.574 563.5,623.5C 564.87,623.856 565.87,624.69 566.5,626C 572.879,637.122 577.712,648.955 581,661.5C 582.385,662.551 583.385,663.884 584,665.5C 586.285,675.824 589.118,685.824 592.5,695.5C 593.061,703.573 594.061,711.573 595.5,719.5C 438.5,719.5 281.5,719.5 124.5,719.5C 125.975,709.46 127.641,699.46 129.5,689.5C 130.222,689.082 130.722,688.416 131,687.5C 131.333,687.833 131.667,688.167 132,688.5C 134.312,688.045 136.312,687.045 138,685.5C 138.833,687 140,688.167 141.5,689C 142.061,690.566 141.394,691.899 139.5,693C 140.658,694.009 141.325,695.342 141.5,697C 141.212,699.187 140.878,701.354 140.5,703.5C 141.5,703.5 142.5,703.5 143.5,703.5C 143.666,696.159 143.5,688.826 143,681.5C 142.667,682.167 142.333,682.833 142,683.5C 141.371,680.689 140.871,677.856 140.5,675C 140.748,673.284 141.415,671.784 142.5,670.5C 141.502,667.972 140.669,667.972 140,670.5C 139.223,667.571 139.39,664.737 140.5,662C 139.906,661.536 139.239,661.369 138.5,661.5C 138.893,659.716 139.559,658.05 140.5,656.5C 141.496,656.586 142.329,656.252 143,655.5C 143.497,658.146 143.664,660.813 143.5,663.5C 145.833,663.5 148.167,663.5 150.5,663.5C 150.773,661.549 150.107,660.049 148.5,659C 149.184,657.307 150.184,655.807 151.5,654.5C 150.183,654.687 148.85,654.02 147.5,652.5C 149.14,650.417 151.14,650.084 153.5,651.5C 153.227,649.549 153.893,648.049 155.5,647C 154.216,646.316 153.049,646.483 152,647.5C 148.606,645.516 148.273,643.516 151,641.5C 151.428,646.498 152.261,646.665 153.5,642C 152.034,640.448 151.034,638.614 150.5,636.5C 152.194,634.446 153.361,632.112 154,629.5C 155.835,631.449 157.001,633.783 157.5,636.5C 157.833,635.667 158.167,634.833 158.5,634C 157.278,631.296 156.278,628.462 155.5,625.5C 157.933,623.946 160.6,623.28 163.5,623.5C 163.697,618.276 164.364,612.943 165.5,607.5C 167.167,607.5 168.833,607.5 170.5,607.5C 171.044,609.58 171.878,611.58 173,613.5C 174.861,610.825 175.861,607.825 176,604.5C 176.249,605.624 176.749,606.624 177.5,607.5C 177.833,607.167 178.167,606.833 178.5,606.5C 177.572,605.232 177.405,603.899 178,602.5C 178.667,603.833 179.333,603.833 180,602.5C 180.626,606.136 181.793,606.136 183.5,602.5C 185.255,605.023 187.089,605.023 189,602.5C 189.772,602.645 190.439,602.978 191,603.5C 191.494,601.866 191.66,600.199 191.5,598.5C 188.171,598.736 185.171,597.903 182.5,596C 183.833,594.667 183.833,593.333 182.5,592C 185.454,592.561 188.454,592.394 191.5,591.5C 191.318,589.409 191.652,587.409 192.5,585.5C 190.833,584.833 189.167,584.167 187.5,583.5C 188.03,580.884 189.03,578.217 190.5,575.5C 191.397,574.402 192.23,574.402 193,575.5C 193.805,573.099 194.638,573.266 195.5,576C 194.207,576.49 192.873,576.657 191.5,576.5C 191.5,577.833 191.5,579.167 191.5,580.5C 193.911,580.863 195.411,579.863 196,577.5C 197.839,579.711 197.672,581.877 195.5,584C 196.38,585.356 196.714,586.856 196.5,588.5C 199.504,588.665 201.504,587.332 202.5,584.5C 201.593,581.579 201.26,578.579 201.5,575.5C 206.188,574.534 210.855,574.367 215.5,575C 214.643,574.311 213.977,573.478 213.5,572.5C 215.583,568.132 215.916,567.132 214.5,569.5C 211.477,569.895 210.477,568.895 211.5,566.5C 216.594,565.181 221.594,565.514 226.5,567.5C 228.481,567.563 230.148,566.896 231.5,565.5C 229.042,564.081 226.375,563.081 223.5,562.5C 226.212,561.772 228.879,560.939 231.5,560C 230.359,559.259 230.359,558.425 231.5,557.5C 230.275,554.34 228.775,554.006 227,556.5C 223.557,555.136 223.724,554.469 227.5,554.5C 227.197,551.412 228.53,549.746 231.5,549.5C 231.5,548.5 231.5,547.5 231.5,546.5C 235.278,545.807 235.278,544.64 231.5,543C 232.939,542.009 233.939,540.676 234.5,539C 236.076,538.56 237.41,537.727 238.5,536.5C 240.167,537.833 241.833,537.833 243.5,536.5C 245.595,534.215 247.928,532.215 250.5,530.5C 251.696,530.846 251.696,531.346 250.5,532C 251.167,532.667 251.833,532.667 252.5,532C 253.38,530.644 253.714,529.144 253.5,527.5C 255.57,527.551 257.403,526.885 259,525.5C 260.762,525.944 260.595,526.444 258.5,527C 259.333,527.167 260.167,527.333 261,527.5C 264.41,526.902 267.91,526.902 271.5,527.5C 273.964,527.41 276.13,526.743 278,525.5C 278.333,526.167 278.667,526.833 279,527.5C 279.667,525.833 279.667,524.167 279,522.5C 278.667,522.833 278.333,523.167 278,523.5C 277.294,521.029 277.627,518.695 279,516.5C 281.719,517.444 284.552,517.777 287.5,517.5C 287.5,516.167 287.5,514.833 287.5,513.5C 289.774,513.285 291.941,512.618 294,511.5C 298.904,512.783 299.404,512.116 295.5,509.5C 298.417,509.635 301.084,508.968 303.5,507.5C 305.734,507.38 307.901,507.713 310,508.5C 314.453,507.072 318.953,505.738 323.5,504.5C 325.539,505.01 327.372,505.01 329,504.5C 329.419,505.672 330.085,506.672 331,507.5C 334.982,504.95 336.482,506.283 335.5,511.5C 336.978,511.762 338.311,511.429 339.5,510.5C 340.779,507.888 342.445,505.555 344.5,503.5C 359.155,502.334 373.822,502.167 388.5,503C 389.623,504.044 390.956,504.71 392.5,505C 391.939,506.676 390.939,508.009 389.5,509C 394.245,509.382 398.912,510.216 403.5,511.5C 405.076,509.86 408.242,508.86 413,508.5C 415.817,509.031 418.65,509.364 421.5,509.5 Z"/></g>
<g><path style="opacity:1" fill="#af9ed6" d="M 531.5,576.5 C 530.833,576.167 530.167,575.833 529.5,575.5C 521.274,566.11 511.94,557.943 501.5,551C 497.744,547.164 493.744,543.498 489.5,540C 488.099,539.59 486.766,539.09 485.5,538.5C 477.958,533.456 470.291,528.622 462.5,524C 453.33,520.789 444.33,517.122 435.5,513C 430.988,511.205 426.321,510.039 421.5,509.5C 419.751,508.015 417.751,507.015 415.5,506.5C 419.886,505.914 424.219,505.914 428.5,506.5C 434.388,503.8 440.721,502.8 447.5,503.5C 447.201,501.396 447.534,499.396 448.5,497.5C 453.406,499.247 458.406,500.581 463.5,501.5C 463.721,505.795 462.388,506.462 459.5,503.5C 457.233,503.559 456.567,504.392 457.5,506C 456.579,507.756 455.412,507.923 454,506.5C 451.536,507.161 449.036,507.661 446.5,508C 447.167,508.333 447.833,508.667 448.5,509C 446.996,512.481 447.663,515.481 450.5,518C 454.558,518.767 458.558,518.6 462.5,517.5C 462.833,517.833 463.167,518.167 463.5,518.5C 462.624,519.251 461.624,519.751 460.5,520C 463.983,521.138 467.483,521.638 471,521.5C 471.497,518.854 471.664,516.187 471.5,513.5C 472.873,513.343 474.207,513.51 475.5,514C 476.817,515.659 478.483,516.826 480.5,517.5C 480.94,516.302 481.273,515.135 481.5,514C 482.833,513.333 484.167,513.333 485.5,514C 486.641,514.741 486.641,515.575 485.5,516.5C 487.435,517.068 488.768,518.235 489.5,520C 486.724,524.318 487.558,525.152 492,522.5C 494.574,523.568 495.407,525.234 494.5,527.5C 493.784,526.689 492.95,526.022 492,525.5C 488.991,527.454 489.158,529.454 492.5,531.5C 493.645,527.962 495.478,527.628 498,530.5C 498.483,529.552 498.649,528.552 498.5,527.5C 499.873,527.343 501.207,527.51 502.5,528C 502.167,528.333 501.833,528.667 501.5,529C 503.981,532.209 503.147,533.043 499,531.5C 497.225,532.27 495.725,533.437 494.5,535C 492.343,535.078 490.343,535.245 488.5,535.5C 490.5,536.833 492.5,538.167 494.5,539.5C 493.975,540.192 493.308,540.692 492.5,541C 494.269,542.019 495.936,542.186 497.5,541.5C 498.719,542.646 500.052,543.646 501.5,544.5C 501.291,545.086 500.957,545.586 500.5,546C 501.793,546.49 503.127,546.657 504.5,546.5C 505.049,548.901 505.882,551.235 507,553.5C 508.458,552.253 509.958,552.253 511.5,553.5C 512.934,551.78 513.767,549.78 514,547.5C 515.011,548.337 516.178,548.67 517.5,548.5C 517.567,550.401 517.233,552.234 516.5,554C 519.144,556.391 519.144,558.725 516.5,561C 517.899,561.595 519.232,561.428 520.5,560.5C 521.386,561.325 521.719,562.325 521.5,563.5C 523.91,563.921 525.743,565.254 527,567.5C 527.26,565.382 528.26,563.716 530,562.5C 531.678,563.682 531.512,564.848 529.5,566C 530.941,567.945 532.607,569.779 534.5,571.5C 532.722,572.726 531.722,574.393 531.5,576.5 Z"/></g>
<g><path style="opacity:1" fill="#6b5d98" d="M 485.5,538.5 C 486.766,539.09 488.099,539.59 489.5,540C 493.744,543.498 497.744,547.164 501.5,551C 511.94,557.943 521.274,566.11 529.5,575.5C 527.616,575.288 526.283,574.288 525.5,572.5C 523.225,574.563 521.392,573.896 520,570.5C 519.667,571.167 519.333,571.833 519,572.5C 517.883,571.051 517.216,569.384 517,567.5C 516.107,568.711 515.274,568.711 514.5,567.5C 515.167,566.833 515.833,566.167 516.5,565.5C 514.878,563.561 513.044,563.228 511,564.5C 509.606,562.598 507.773,562.265 505.5,563.5C 505.64,561.876 504.973,560.71 503.5,560C 500.854,559.503 498.187,559.336 495.5,559.5C 495.5,558.5 495.5,557.5 495.5,556.5C 496.675,556.719 497.675,556.386 498.5,555.5C 496.376,553.879 494.376,552.046 492.5,550C 488.118,549.997 486.451,547.831 487.5,543.5C 486.448,543.649 485.448,543.483 484.5,543C 485.38,541.644 485.714,540.144 485.5,538.5 Z"/></g>
<g><path style="opacity:1" fill="#675b98" d="M 295.5,509.5 C 299.404,512.116 298.904,512.783 294,511.5C 291.941,512.618 289.774,513.285 287.5,513.5C 287.5,514.833 287.5,516.167 287.5,517.5C 284.552,517.777 281.719,517.444 279,516.5C 277.627,518.695 277.294,521.029 278,523.5C 278.333,523.167 278.667,522.833 279,522.5C 279.667,524.167 279.667,525.833 279,527.5C 278.667,526.833 278.333,526.167 278,525.5C 276.13,526.743 273.964,527.41 271.5,527.5C 267.91,526.902 264.41,526.902 261,527.5C 260.167,527.333 259.333,527.167 258.5,527C 260.595,526.444 260.762,525.944 259,525.5C 257.403,526.885 255.57,527.551 253.5,527.5C 253.714,529.144 253.38,530.644 252.5,532C 251.833,532.667 251.167,532.667 250.5,532C 251.696,531.346 251.696,530.846 250.5,530.5C 247.928,532.215 245.595,534.215 243.5,536.5C 241.833,537.833 240.167,537.833 238.5,536.5C 237.41,537.727 236.076,538.56 234.5,539C 233.939,540.676 232.939,542.009 231.5,543C 235.278,544.64 235.278,545.807 231.5,546.5C 231.5,547.5 231.5,548.5 231.5,549.5C 228.53,549.746 227.197,551.412 227.5,554.5C 223.724,554.469 223.557,555.136 227,556.5C 228.775,554.006 230.275,554.34 231.5,557.5C 230.359,558.425 230.359,559.259 231.5,560C 228.879,560.939 226.212,561.772 223.5,562.5C 226.375,563.081 229.042,564.081 231.5,565.5C 230.148,566.896 228.481,567.563 226.5,567.5C 221.594,565.514 216.594,565.181 211.5,566.5C 210.477,568.895 211.477,569.895 214.5,569.5C 215.916,567.132 215.583,568.132 213.5,572.5C 213.977,573.478 214.643,574.311 215.5,575C 210.855,574.367 206.188,574.534 201.5,575.5C 201.26,578.579 201.593,581.579 202.5,584.5C 201.504,587.332 199.504,588.665 196.5,588.5C 196.714,586.856 196.38,585.356 195.5,584C 197.672,581.877 197.839,579.711 196,577.5C 195.411,579.863 193.911,580.863 191.5,580.5C 191.5,579.167 191.5,577.833 191.5,576.5C 192.873,576.657 194.207,576.49 195.5,576C 194.638,573.266 193.805,573.099 193,575.5C 192.23,574.402 191.397,574.402 190.5,575.5C 190.351,574.448 190.517,573.448 191,572.5C 196.769,568.4 201.936,563.567 206.5,558C 215.797,551.294 224.797,544.46 233.5,537.5C 243.816,531.081 254.483,525.247 265.5,520C 268.167,519.333 270.833,518.667 273.5,518C 280.001,513.109 287.334,510.276 295.5,509.5 Z"/></g>
<g><path style="opacity:1" fill="#6a5c98" d="M 529.5,575.5 C 530.167,575.833 530.833,576.167 531.5,576.5C 536.794,582.318 541.627,588.652 546,595.5C 547.615,596.386 549.115,597.386 550.5,598.5C 554.555,606.943 558.889,615.276 563.5,623.5C 561.589,623.574 560.422,624.574 560,626.5C 559.503,624.19 559.337,621.857 559.5,619.5C 557.857,619.52 556.524,618.853 555.5,617.5C 554.833,618.167 554.167,618.833 553.5,619.5C 552.378,617.956 552.711,616.623 554.5,615.5C 552.824,612.827 551.158,610.161 549.5,607.5C 547.562,604.921 545.729,604.921 544,607.5C 542.739,604.789 540.906,602.622 538.5,601C 538.833,600.667 539.167,600.333 539.5,600C 538.241,599.018 536.908,598.685 535.5,599C 535.833,599.333 536.167,599.667 536.5,600C 533.643,604.731 531.476,604.564 530,599.5C 529.581,600.672 528.915,601.672 528,602.5C 527.506,600.866 527.34,599.199 527.5,597.5C 529.262,597.357 530.929,597.691 532.5,598.5C 534.699,596.803 537.032,595.303 539.5,594C 537.508,593.426 536.008,592.259 535,590.5C 534.781,591.938 534.281,593.271 533.5,594.5C 531.041,592.194 528.041,591.027 524.5,591C 525.815,589.605 525.481,588.605 523.5,588C 525.667,587.167 527.167,585.667 528,583.5C 529.635,584.849 531.135,584.682 532.5,583C 530.7,580.886 529.7,578.386 529.5,575.5 Z"/></g>
<g><path style="opacity:1" fill="#b19fd7" d="M 592.5,695.5 C 589.118,685.824 586.285,675.824 584,665.5C 583.385,663.884 582.385,662.551 581,661.5C 577.712,648.955 572.879,637.122 566.5,626C 565.87,624.69 564.87,623.856 563.5,623.5C 558.889,615.276 554.555,606.943 550.5,598.5C 552.142,594.588 555.142,592.254 559.5,591.5C 558.612,593.946 558.445,596.279 559,598.5C 560.406,599.668 561.572,599.335 562.5,597.5C 565.578,599.13 568.911,599.963 572.5,600C 570.866,600.494 569.199,600.66 567.5,600.5C 567.5,601.5 567.5,602.5 567.5,603.5C 570.33,603.306 572.996,602.639 575.5,601.5C 575.643,603.262 575.309,604.929 574.5,606.5C 575.325,607.386 576.325,607.719 577.5,607.5C 577.299,610.728 577.633,613.895 578.5,617C 577.318,618.735 575.651,619.735 573.5,620C 574.337,621.011 574.67,622.178 574.5,623.5C 575.833,623.5 577.167,623.5 578.5,623.5C 578.66,626.884 578.327,630.217 577.5,633.5C 577.833,634.167 578.167,634.833 578.5,635.5C 579.429,634.311 579.762,632.978 579.5,631.5C 582.5,632.833 585.5,632.833 588.5,631.5C 588.5,628.833 588.5,626.167 588.5,623.5C 590.5,623.5 592.5,623.5 594.5,623.5C 594.5,626.167 594.5,628.833 594.5,631.5C 595.5,631.5 596.5,631.5 597.5,631.5C 597.5,632.5 597.5,633.5 597.5,634.5C 600.881,634.46 604.214,634.793 607.5,635.5C 607.5,636.833 607.5,638.167 607.5,639.5C 606.167,639.5 604.833,639.5 603.5,639.5C 603.5,644.833 603.5,650.167 603.5,655.5C 604.833,655.5 606.167,655.5 607.5,655.5C 607.817,658.572 607.484,661.572 606.5,664.5C 605.252,663.96 604.085,663.293 603,662.5C 602.175,666.211 602.341,669.878 603.5,673.5C 604.524,672.147 605.857,671.48 607.5,671.5C 607.5,672.833 607.5,674.167 607.5,675.5C 600.241,675.877 598.908,678.71 603.5,684C 601.939,684.318 600.772,685.151 600,686.5C 598.488,685.743 597.154,684.743 596,683.5C 596.355,686.548 595.689,689.548 594,692.5C 593.667,691.833 593.333,691.167 593,690.5C 592.506,692.134 592.34,693.801 592.5,695.5 Z"/></g>
<g><path style="opacity:1" fill="#675b97" d="M 190.5,575.5 C 189.03,578.217 188.03,580.884 187.5,583.5C 189.167,584.167 190.833,584.833 192.5,585.5C 191.652,587.409 191.318,589.409 191.5,591.5C 188.454,592.394 185.454,592.561 182.5,592C 183.833,593.333 183.833,594.667 182.5,596C 185.171,597.903 188.171,598.736 191.5,598.5C 191.66,600.199 191.494,601.866 191,603.5C 190.439,602.978 189.772,602.645 189,602.5C 187.089,605.023 185.255,605.023 183.5,602.5C 181.793,606.136 180.626,606.136 180,602.5C 179.333,603.833 178.667,603.833 178,602.5C 177.405,603.899 177.572,605.232 178.5,606.5C 178.167,606.833 177.833,607.167 177.5,607.5C 176.749,606.624 176.249,605.624 176,604.5C 175.861,607.825 174.861,610.825 173,613.5C 171.878,611.58 171.044,609.58 170.5,607.5C 168.833,607.5 167.167,607.5 165.5,607.5C 164.364,612.943 163.697,618.276 163.5,623.5C 160.6,623.28 157.933,623.946 155.5,625.5C 156.278,628.462 157.278,631.296 158.5,634C 158.167,634.833 157.833,635.667 157.5,636.5C 157.001,633.783 155.835,631.449 154,629.5C 153.361,632.112 152.194,634.446 150.5,636.5C 151.034,638.614 152.034,640.448 153.5,642C 152.261,646.665 151.428,646.498 151,641.5C 148.273,643.516 148.606,645.516 152,647.5C 153.049,646.483 154.216,646.316 155.5,647C 153.893,648.049 153.227,649.549 153.5,651.5C 151.14,650.084 149.14,650.417 147.5,652.5C 148.85,654.02 150.183,654.687 151.5,654.5C 150.184,655.807 149.184,657.307 148.5,659C 150.107,660.049 150.773,661.549 150.5,663.5C 148.167,663.5 145.833,663.5 143.5,663.5C 143.664,660.813 143.497,658.146 143,655.5C 142.329,656.252 141.496,656.586 140.5,656.5C 141.92,653.739 142.587,650.739 142.5,647.5C 148.167,634.501 154.667,621.834 162,609.5C 165.671,606.154 168.338,602.154 170,597.5C 176.777,589.897 183.611,582.564 190.5,575.5 Z"/></g>
<g><path style="opacity:1" fill="#8f7fbd" d="M 142.5,647.5 C 142.587,650.739 141.92,653.739 140.5,656.5C 139.559,658.05 138.893,659.716 138.5,661.5C 138.201,663.455 137.201,664.789 135.5,665.5C 135.421,662.729 135.921,660.063 137,657.5C 139.143,654.228 140.976,650.895 142.5,647.5 Z"/></g>
<g><path style="opacity:1" fill="#655a96" d="M 138.5,661.5 C 139.239,661.369 139.906,661.536 140.5,662C 139.39,664.737 139.223,667.571 140,670.5C 140.669,667.972 141.502,667.972 142.5,670.5C 141.415,671.784 140.748,673.284 140.5,675C 140.871,677.856 141.371,680.689 142,683.5C 142.333,682.833 142.667,682.167 143,681.5C 143.5,688.826 143.666,696.159 143.5,703.5C 142.5,703.5 141.5,703.5 140.5,703.5C 140.878,701.354 141.212,699.187 141.5,697C 141.325,695.342 140.658,694.009 139.5,693C 141.394,691.899 142.061,690.566 141.5,689C 140,688.167 138.833,687 138,685.5C 136.312,687.045 134.312,688.045 132,688.5C 131.667,688.167 131.333,687.833 131,687.5C 130.722,688.416 130.222,689.082 129.5,689.5C 129.517,687.435 129.85,685.435 130.5,683.5C 131.754,677.403 133.42,671.403 135.5,665.5C 137.201,664.789 138.201,663.455 138.5,661.5 Z"/></g>
<g><path style="opacity:1" fill="#7f71ac" d="M 130.5,683.5 C 129.85,685.435 129.517,687.435 129.5,689.5C 127.641,699.46 125.975,709.46 124.5,719.5C 124.167,719.5 123.833,719.5 123.5,719.5C 123.334,715.154 123.501,710.821 124,706.5C 126.28,699.376 127.946,692.043 129,684.5C 129.383,683.944 129.883,683.611 130.5,683.5 Z"/></g>
</svg>
